<?xml version="1.0" encoding="UTF-8" standalone="no"?>
<svg width="180px" height="132px" viewBox="0 0 180 132" version="1.1" xmlns="http://www.w3.org/2000/svg" xmlns:xlink="http://www.w3.org/1999/xlink" xmlns:sketch="http://www.bohemiancoding.com/sketch/ns">
    <!-- Generator: Sketch 3.3.3 (12081) - http://www.bohemiancoding.com/sketch -->
    <title>ACC Logo Copy</title>
    <desc>Created with Sketch.</desc>
    <defs>
        <path id="path-1" d="M1.80084211,118.135919 L180.4712,118.135919 L180.4712,1.42852448 L1.80084211,1.42852448"></path>
        <path id="path-3" d="M0.344842105,90.0600654 L135.948253,90.0600654 L135.948253,1.43043427 L0.344842105,1.43043427"></path>
        <path id="path-5" d="M0.204350877,133.109363 L178.874709,133.109363 L178.874709,0.632815225 L0.204350877,0.632815225"></path>
        <path id="path-7" d="M0.344842105,104.874323 L135.948253,104.874323 L135.948253,0.473628437 L0.344842105,0.473628437"></path>
    </defs>
    <g id="Design" stroke="none" stroke-width="1" fill="none" fill-rule="evenodd" sketch:type="MSPage">
        <g id="Content-Page-Header-C" sketch:type="MSArtboardGroup" transform="translate(-128.849609, 0.000000)">
            <g id="ACC-Logo-Copy" sketch:type="MSLayerGroup" transform="translate(128.000000, -2.000000)">
                <g id="Group-4">
                    <mask id="mask-2" sketch:name="Clip 2" fill="white">
                        <use xlink:href="#path-1"></use>
                    </mask>
                    <g id="Clip-2"></g>
                    <path d="M158.930063,118.137829 L23.3419789,118.137829 C11.4449263,118.137829 1.80084211,108.523935 1.80084211,96.6660362 L1.80084211,-14.7378655 L180.469284,-14.7378655 L180.469284,96.6660362 C180.469284,108.523935 170.827116,118.137829 158.930063,118.137829" id="Fill-1" fill="#FFFFFF" sketch:type="MSShapeGroup" mask="url(#mask-2)"></path>
                    <path d="M23.3343158,1.42852448 L158.937726,1.42852448 L158.937726,90.0600654 L23.3343158,90.0600654 L23.3343158,1.42852448 Z" id="Fill-3" fill="#005E9E" sketch:type="MSShapeGroup" mask="url(#mask-2)"></path>
                </g>
                <g id="Group-8" transform="translate(22.989474, 0.000000)">
                    <mask id="mask-4" sketch:name="Clip 6" fill="white">
                        <use xlink:href="#path-3"></use>
                    </mask>
                    <g id="Clip-6"></g>
                    <path d="M0.344842105,90.063885 C0.344842105,75.9906271 10.6058105,67.2170423 23.2615158,67.2170423 L135.948253,67.2170423 L135.948253,69.6195607 L23.2615158,69.6195607 C11.9487789,69.6195607 2.75298947,77.2892857 2.75298947,90.063885 L0.344842105,90.063885" id="Fill-5" fill="#FFFFFF" sketch:type="MSShapeGroup" mask="url(#mask-4)"></path>
                    <path d="M135.948253,90.063885 L2.07671579,90.063885 C2.07671579,76.8844098 11.6077684,68.9454041 23.2615158,68.9454041 L135.948253,68.9454041 L135.948253,90.063885" id="Fill-7" fill="#000000" sketch:type="MSShapeGroup" mask="url(#mask-4)"></path>
                </g>
                <path d="M39.7737053,76.7411754 L39.7737053,81.8536888 L40.8063158,81.8536888 L40.8063158,79.9706338 L41.3753053,79.9706338 C41.9423789,79.9706338 42.1646105,79.9114302 42.4002526,79.8006623 C42.9615789,79.537111 43.2853474,78.9928203 43.2853474,78.3148441 C43.2853474,77.7266281 43.0286316,77.2568192 42.5477684,76.9913581 C42.2604,76.8290258 41.9941053,76.7411754 41.1243368,76.7411754 L39.7737053,76.7411754 L39.7737053,76.7411754 Z M40.8063158,77.5719349 L41.4634316,77.5719349 C41.8983158,77.5719349 42.1569474,77.8584038 42.1569474,78.3377616 C42.1569474,78.5803052 42.1205474,78.7273592 42.0324211,78.866774 C41.8906526,79.0806707 41.7661263,79.1322351 41.3446526,79.1322351 L40.8063158,79.1322351 L40.8063158,77.5719349 L40.8063158,77.5719349 Z" id="Fill-9" fill="#FFFFFF" sketch:type="MSShapeGroup"></path>
                <path d="M44.4712211,76.7411754 L44.4712211,81.8536888 L45.4827579,81.8536888 L45.4827579,79.720451 C45.5498105,79.7280902 45.5938737,79.7433685 45.6456,79.7643763 C45.8295158,79.8464973 45.9846947,80.0966801 46.4942947,81.0171999 C46.6935368,81.3762408 46.774,81.5175654 46.9732421,81.8536888 L48.1916842,81.8536888 C48.1916842,81.8536888 47.2548632,80.2360949 46.9579158,79.867505 C46.8927789,79.7796546 46.8487158,79.7357294 46.7452632,79.6555181 C47.3793895,79.6402398 47.8889895,79.0080986 47.8889895,78.242272 C47.8889895,77.3446697 47.2912632,76.7411754 46.3831789,76.7411754 L44.4712211,76.7411754 L44.4712211,76.7411754 Z M45.4827579,77.5662056 L45.8525053,77.5662056 C46.1034737,77.5662056 46.3161263,77.5948524 46.4349053,77.6387777 C46.6782105,77.7285379 46.8046526,77.948164 46.8046526,78.2651895 C46.8046526,78.4771764 46.7299368,78.6624262 46.6054105,78.7808333 C46.4636421,78.9049698 46.2720632,78.948895 45.8295158,78.948895 L45.4827579,78.948895 L45.4827579,77.5662056 L45.4827579,77.5662056 Z" id="Fill-10" fill="#FFFFFF" sketch:type="MSShapeGroup"></path>
                <path d="M49.5423158,76.7411754 L49.5423158,81.8536888 L52.5309474,81.8536888 L52.5309474,80.9713649 L50.5902526,80.9713649 L50.5902526,79.6020439 L52.0443368,79.6020439 L52.0443368,78.7636452 L50.5749263,78.7636452 L50.5749263,77.5795741 L52.3317053,77.5795741 L52.4658105,76.7411754 L49.5423158,76.7411754" id="Fill-11" fill="#FFFFFF" sketch:type="MSShapeGroup"></path>
                <path d="M53.326,76.7411754 L55.0674526,81.8899748 L56.0042737,81.8899748 L57.7917053,76.7411754 L56.7054526,76.7411754 L55.8356842,79.2716499 C55.7398947,79.5504795 55.6057895,79.978273 55.5406526,80.2933887 C55.4582737,79.9190694 55.3701474,79.6326006 55.3030947,79.4034256 L54.4544,76.7411754 L53.326,76.7411754" id="Fill-12" fill="#FFFFFF" sketch:type="MSShapeGroup"></path>
                <path d="M58.8109053,76.7411754 L58.8109053,81.8536888 L61.7995368,81.8536888 L61.7995368,80.9713649 L59.8588421,80.9713649 L59.8588421,79.6020439 L61.3129263,79.6020439 L61.3129263,78.7636452 L59.8435158,78.7636452 L59.8435158,77.5795741 L61.6002947,77.5795741 L61.7344,76.7411754 L58.8109053,76.7411754" id="Fill-13" fill="#FFFFFF" sketch:type="MSShapeGroup"></path>
                <path d="M63.3551579,76.7411754 L63.3551579,81.8536888 L64.3513684,81.8536888 L64.3226316,79.6688867 C64.3149684,79.243003 64.3073053,78.6395087 64.2709053,78.2193545 C64.3666947,78.5363799 64.6770526,79.2582814 64.9644211,79.8961519 L65.8418526,81.8536888 L66.9204421,81.8536888 L66.9204421,76.7411754 L65.9376421,76.7411754 L65.9606316,78.8304879 C65.9682947,79.1837995 66.0046947,79.8388581 66.0410947,80.2360949 C65.9376421,79.867505 65.7384,79.3308535 65.4797684,78.7865627 L64.4988842,76.7411754 L63.3551579,76.7411754" id="Fill-14" fill="#FFFFFF" sketch:type="MSShapeGroup"></path>
                <path d="M68.1752842,76.7411754 L68.1752842,77.5948524 L69.4301263,77.5948524 L69.4301263,81.8536888 L70.4780632,81.8536888 L70.4780632,77.5948524 L71.7022526,77.5948524 L71.8727579,76.7411754 L68.1752842,76.7411754" id="Fill-15" fill="#FFFFFF" sketch:type="MSShapeGroup"></path>
                <path d="M72.9992421,76.7411754 L74.0759158,76.7411754 L74.0759158,81.8536888 L72.9992421,81.8536888 L72.9992421,76.7411754 Z" id="Fill-16" fill="#FFFFFF" sketch:type="MSShapeGroup"></path>
                <path d="M77.6412,76.6762425 C77.2561263,76.6762425 76.8806316,76.7640929 76.5779368,76.9264252 C75.8403579,77.3313011 75.4188842,78.2136251 75.4188842,79.3174849 C75.4188842,80.0680332 75.6181263,80.7154527 76.0089474,81.2139085 C76.3997684,81.7219131 76.9017053,81.9358099 77.6776,81.9358099 C78.1048211,81.9358099 78.3941053,81.8689671 78.7025474,81.7009054 C79.4477895,81.2960295 79.8462737,80.4270741 79.8462737,79.2735597 C79.8462737,77.6693343 79.0052421,76.6762425 77.6412,76.6762425 M77.6258737,77.470716 C78.1718737,77.470716 78.4458316,77.8603135 78.5262947,78.1181355 C78.6144211,78.4046043 78.6584842,78.7808333 78.6584842,79.3022066 C78.6584842,80.6046848 78.3557895,81.1489755 77.6412,81.1489755 C77.3978947,81.1489755 77.1909895,81.089772 77.0281474,80.9732746 C76.7177895,80.7517388 76.5702737,80.1998089 76.5702737,79.3174849 C76.5702737,78.6987123 76.6526526,78.2499111 76.8289053,77.9195171 C76.9764211,77.6464168 77.2791158,77.470716 77.6258737,77.470716" id="Fill-17" fill="#FFFFFF" sketch:type="MSShapeGroup"></path>
                <path d="M81.2084,76.7411754 L81.2084,81.8536888 L82.2046105,81.8536888 L82.1758737,79.6688867 C82.1682105,79.243003 82.1605474,78.6395087 82.1241474,78.2193545 C82.2199368,78.5363799 82.5283789,79.2582814 82.8176632,79.8961519 L83.6950947,81.8536888 L84.7717684,81.8536888 L84.7717684,76.7411754 L83.7908842,76.7411754 L83.8138737,78.8304879 C83.8215368,79.1837995 83.8579368,79.8388581 83.8943368,80.2360949 C83.7908842,79.867505 83.5916421,79.3308535 83.3330105,78.7865627 L82.3521263,76.7411754 L81.2084,76.7411754" id="Fill-18" fill="#FFFFFF" sketch:type="MSShapeGroup"></path>
                <path d="M86.4768211,80.9083417 C86.1913684,80.9083417 85.9595579,81.1394266 85.9595579,81.4239856 C85.9595579,81.7123642 86.1913684,81.9491784 86.4825684,81.9491784 C86.7680211,81.9491784 87.0055789,81.7123642 87.0055789,81.4239856 C87.0055789,81.1394266 86.7680211,80.9083417 86.4768211,80.9083417" id="Fill-19" fill="#FFFFFF" sketch:type="MSShapeGroup"></path>
                <path d="M93.3621684,77.0352834 C93.0824632,76.7927398 92.5728632,76.6304074 92.0632632,76.6304074 C91.2375579,76.6304074 90.4980632,77.0715694 90.0995789,77.8144785 C89.8639368,78.2575503 89.7528211,78.7636452 89.7528211,79.4034256 C89.7528211,80.1539738 89.9597263,80.7727465 90.3735368,81.2349162 C90.7950105,81.714274 91.3390947,81.943449 92.0479368,81.943449 C92.6322526,81.943449 93.0671368,81.796395 93.4732842,81.4640912 L93.0000842,80.8166717 C92.6973895,81.0592153 92.4253474,81.1470657 92.1226526,81.1470657 C91.6801053,81.1470657 91.3390947,80.9484474 91.1341053,80.5741281 C90.9789263,80.2952985 90.9195368,79.9037911 90.9195368,79.206717 C90.9195368,78.6108618 91.0076632,78.1830684 91.2069053,77.8889604 C91.3927368,77.61777 91.7318316,77.4477985 92.0785895,77.4477985 C92.3659579,77.4477985 92.6399158,77.5432881 92.8966316,77.7342673 L93.3621684,77.0352834" id="Fill-20" fill="#FFFFFF" sketch:type="MSShapeGroup"></path>
                <path d="M95.8182105,76.725897 L94.1361474,81.8536888 L95.2128211,81.8536888 L95.5749053,80.6409708 L97.0807158,80.6409708 L97.4428,81.8536888 L98.5482105,81.8536888 L96.9332,76.725897 L95.8182105,76.725897 L95.8182105,76.725897 Z M95.8258737,79.7872938 C95.9369895,79.4492606 96.0021263,79.206717 96.0998316,78.8381271 C96.1956211,78.4561687 96.3431368,77.8526744 96.3431368,77.8526744 C96.3431368,77.8526744 96.4983158,78.5211016 96.5500421,78.7579158 C96.6592421,79.2506422 96.8297474,79.7872938 96.8297474,79.7872938 L95.8258737,79.7872938 L95.8258737,79.7872938 Z" id="Fill-21" fill="#FFFFFF" sketch:type="MSShapeGroup"></path>
                <path d="M99.6996,76.7411754 L99.6996,81.8536888 L100.711137,81.8536888 L100.711137,79.720451 C100.778189,79.7280902 100.822253,79.7433685 100.873979,79.7643763 C101.057895,79.8464973 101.213074,80.0966801 101.722674,81.0171999 C101.921916,81.3762408 102.002379,81.5175654 102.201621,81.8536888 L103.420063,81.8536888 C103.420063,81.8536888 102.481326,80.2360949 102.186295,79.867505 C102.121158,79.7796546 102.077095,79.7357294 101.973642,79.6555181 C102.607768,79.6402398 103.117368,79.0080986 103.117368,78.242272 C103.117368,77.3446697 102.519642,76.7411754 101.611558,76.7411754 L99.6996,76.7411754 L99.6996,76.7411754 Z M100.711137,77.5662056 L101.080884,77.5662056 C101.331853,77.5662056 101.544505,77.5948524 101.663284,77.6387777 C101.906589,77.7285379 102.033032,77.948164 102.033032,78.2651895 C102.033032,78.4771764 101.958316,78.6624262 101.833789,78.7808333 C101.692021,78.9049698 101.500442,78.948895 101.057895,78.948895 L100.711137,78.948895 L100.711137,77.5662056 L100.711137,77.5662056 Z" id="Fill-22" fill="#FFFFFF" sketch:type="MSShapeGroup"></path>
                <path d="M104.695979,76.7411754 L104.695979,81.8536888 L107.684611,81.8536888 L107.684611,80.9713649 L105.743916,80.9713649 L105.743916,79.6020439 L107.198,79.6020439 L107.198,78.7636452 L105.728589,78.7636452 L105.728589,77.5795741 L107.485368,77.5795741 L107.617558,76.7411754 L104.695979,76.7411754" id="Fill-23" fill="#FFFFFF" sketch:type="MSShapeGroup"></path>
                <path d="M109.113789,80.9083417 C108.828337,80.9083417 108.596526,81.1394266 108.596526,81.4239856 C108.596526,81.7123642 108.828337,81.9491784 109.119537,81.9491784 C109.404989,81.9491784 109.642547,81.7123642 109.642547,81.4239856 C109.642547,81.1394266 109.404989,80.9083417 109.113789,80.9083417" id="Fill-24" fill="#FFFFFF" sketch:type="MSShapeGroup"></path>
                <path d="M112.759537,76.7411754 L112.759537,81.8536888 L113.769158,81.8536888 L113.769158,79.720451 C113.836211,79.7280902 113.882189,79.7433685 113.932,79.7643763 C114.115916,79.8464973 114.271095,80.0966801 114.780695,81.0171999 C114.979937,81.3762408 115.062316,81.5175654 115.261558,81.8536888 L116.478084,81.8536888 C116.478084,81.8536888 115.539347,80.2360949 115.244316,79.867505 C115.179179,79.7796546 115.135116,79.7357294 115.031663,79.6555181 C115.665789,79.6402398 116.175389,79.0080986 116.175389,78.242272 C116.175389,77.3446697 115.577663,76.7411754 114.669579,76.7411754 L112.759537,76.7411754 L112.759537,76.7411754 Z M113.769158,77.5662056 L114.138905,77.5662056 C114.389874,77.5662056 114.602526,77.5948524 114.721305,77.6387777 C114.964611,77.7285379 115.089137,77.948164 115.089137,78.2651895 C115.089137,78.4771764 115.016337,78.6624262 114.891811,78.7808333 C114.750042,78.9049698 114.558463,78.948895 114.115916,78.948895 L113.769158,78.948895 L113.769158,77.5662056 L113.769158,77.5662056 Z" id="Fill-25" fill="#FFFFFF" sketch:type="MSShapeGroup"></path>
                <path d="M117.828716,76.7411754 L117.828716,81.8536888 L120.817347,81.8536888 L120.817347,80.9713649 L118.876653,80.9713649 L118.876653,79.6020439 L120.330737,79.6020439 L120.330737,78.7636452 L118.861326,78.7636452 L118.861326,77.5795741 L120.618105,77.5795741 L120.750295,76.7411754 L117.828716,76.7411754" id="Fill-26" fill="#FFFFFF" sketch:type="MSShapeGroup"></path>
                <path d="M125.560842,77.0352834 C125.281137,76.7927398 124.771537,76.6304074 124.261937,76.6304074 C123.436232,76.6304074 122.696737,77.0715694 122.298253,77.8144785 C122.062611,78.2575503 121.951495,78.7636452 121.951495,79.4034256 C121.951495,80.1539738 122.1584,80.7727465 122.572211,81.2349162 C122.991768,81.714274 123.539684,81.943449 124.246611,81.943449 C124.830926,81.943449 125.265811,81.796395 125.671958,81.4640912 L125.198758,80.8166717 C124.896063,81.0592153 124.624021,81.1470657 124.321326,81.1470657 C123.878779,81.1470657 123.539684,80.9484474 123.332779,80.5741281 C123.1776,80.2952985 123.118211,79.9037911 123.118211,79.206717 C123.118211,78.6108618 123.206337,78.1830684 123.405579,77.8889604 C123.589495,77.61777 123.930505,77.4477985 124.277263,77.4477985 C124.564632,77.4477985 124.836674,77.5432881 125.095305,77.7342673 L125.560842,77.0352834" id="Fill-27" fill="#FFFFFF" sketch:type="MSShapeGroup"></path>
                <path d="M128.712316,76.6762425 C128.327242,76.6762425 127.951747,76.7640929 127.649053,76.9264252 C126.911474,77.3313011 126.49,78.2136251 126.49,79.3174849 C126.49,80.0680332 126.689242,80.7154527 127.080063,81.2139085 C127.4728,81.7219131 127.974737,81.9358099 128.748716,81.9358099 C129.175937,81.9358099 129.465221,81.8689671 129.773663,81.7009054 C130.518905,81.2960295 130.917389,80.4270741 130.917389,79.2735597 C130.917389,77.6693343 130.076358,76.6762425 128.712316,76.6762425 M128.696989,77.470716 C129.242989,77.470716 129.516947,77.8603135 129.597411,78.1181355 C129.685537,78.4046043 129.7296,78.7808333 129.7296,79.3022066 C129.7296,80.6046848 129.426905,81.1489755 128.712316,81.1489755 C128.469011,81.1489755 128.262105,81.089772 128.099263,80.9732746 C127.788905,80.7517388 127.641389,80.1998089 127.641389,79.3174849 C127.641389,78.6987123 127.723768,78.2499111 127.900021,77.9195171 C128.047537,77.6464168 128.350232,77.470716 128.696989,77.470716" id="Fill-28" fill="#FFFFFF" sketch:type="MSShapeGroup"></path>
                <path d="M131.526611,76.7411754 L133.268063,81.8899748 L134.204884,81.8899748 L135.9904,76.7411754 L134.906063,76.7411754 L134.036295,79.2716499 C133.940505,79.5504795 133.8064,79.978273 133.741263,80.2933887 C133.658884,79.9190694 133.570758,79.6326006 133.503705,79.4034256 L132.655011,76.7411754 L131.526611,76.7411754" id="Fill-29" fill="#FFFFFF" sketch:type="MSShapeGroup"></path>
                <path d="M137.157116,76.7411754 L137.157116,81.8536888 L140.145747,81.8536888 L140.145747,80.9713649 L138.205053,80.9713649 L138.205053,79.6020439 L139.659137,79.6020439 L139.659137,78.7636452 L138.189726,78.7636452 L138.189726,77.5795741 L139.946505,77.5795741 L140.078695,76.7411754 L137.157116,76.7411754" id="Fill-30" fill="#FFFFFF" sketch:type="MSShapeGroup"></path>
                <path d="M141.701368,76.7411754 L141.701368,81.8536888 L142.712905,81.8536888 L142.712905,79.720451 C142.779958,79.7280902 142.824021,79.7433685 142.875747,79.7643763 C143.059663,79.8464973 143.214842,80.0966801 143.724442,81.0171999 C143.923684,81.3762408 144.004147,81.5175654 144.203389,81.8536888 L145.421832,81.8536888 C145.421832,81.8536888 144.485011,80.2360949 144.188063,79.867505 C144.122926,79.7796546 144.078863,79.7357294 143.975411,79.6555181 C144.609537,79.6402398 145.119137,79.0080986 145.119137,78.242272 C145.119137,77.3446697 144.521411,76.7411754 143.613326,76.7411754 L141.701368,76.7411754 L141.701368,76.7411754 Z M142.712905,77.5662056 L143.082653,77.5662056 C143.333621,77.5662056 143.546274,77.5948524 143.665053,77.6387777 C143.908358,77.7285379 144.0348,77.948164 144.0348,78.2651895 C144.0348,78.4771764 143.960084,78.6624262 143.835558,78.7808333 C143.693789,78.9049698 143.502211,78.948895 143.059663,78.948895 L142.712905,78.948895 L142.712905,77.5662056 L142.712905,77.5662056 Z" id="Fill-31" fill="#FFFFFF" sketch:type="MSShapeGroup"></path>
                <path d="M145.782,76.7411754 L147.375937,79.7510077 L147.375937,81.8536888 L148.454526,81.8536888 L148.454526,79.7510077 L150.092526,76.7411754 L148.874084,76.7411754 L148.209305,78.1525117 C148.100105,78.3969651 147.996653,78.6452381 147.937263,78.7942019 C147.877874,78.6013129 147.810821,78.4179728 147.678632,78.1391432 L147.021516,76.7411754 L145.782,76.7411754" id="Fill-32" fill="#FFFFFF" sketch:type="MSShapeGroup"></path>
                <path d="M150.393305,80.9083417 C150.107853,80.9083417 149.876042,81.1394266 149.876042,81.4239856 C149.876042,81.7123642 150.107853,81.9491784 150.399053,81.9491784 C150.684505,81.9491784 150.922063,81.7123642 150.922063,81.4239856 C150.922063,81.1394266 150.684505,80.9083417 150.393305,80.9083417" id="Fill-33" fill="#FFFFFF" sketch:type="MSShapeGroup"></path>
                <path d="M99.7417474,31.7522032 C101.316526,31.7522032 102.602021,33.0642304 102.602021,34.6760949 C102.602021,36.2898692 101.326105,37.5980768 99.7513263,37.5980768 L92.0824211,37.5904376 L92.0900842,48.5851107 L98.6133474,41.8779209 C99.7264211,40.7358652 101.659453,40.5601643 102.772526,41.70222 C102.826168,41.7556942 102.875979,41.8110781 102.921958,41.8664621 L102.929621,34.4812961 C103.017747,32.9496429 104.253432,31.7522032 105.770737,31.7522032 L116.267347,31.7522032 C117.842126,31.7522032 119.127621,33.0642304 119.127621,34.6760949 C119.127621,36.2898692 117.851705,37.5980768 116.276926,37.5980768 L108.608021,37.5904376 L108.6176,48.5851107 L115.138947,41.8779209 C116.252021,40.7358652 118.186968,40.5601643 119.300042,41.70222 C120.413116,42.8423659 120.275179,44.6585781 119.162105,45.8006338 L107.630968,57.5706824 C107.117537,58.0825067 106.527474,58.3995322 105.763074,58.3995322 C104.190211,58.3995322 102.912379,57.0817757 102.912379,55.4680013 L102.920042,45.46833 C102.833832,45.5829175 102.739958,45.6936854 102.636505,45.8006338 L91.1034526,57.5706824 C90.5919368,58.0825067 89.9999579,58.3995322 89.2374737,58.3995322 C87.6626947,58.3995322 86.3867789,57.0817757 86.3867789,55.4680013 C86.3867789,55.4680013 86.3982737,34.4851157 86.4040211,34.4812961 C86.4921474,32.9496429 87.7259158,31.7522032 89.2451368,31.7522032 L99.7417474,31.7522032" id="Fill-34" fill="#FFFFFF" sketch:type="MSShapeGroup"></path>
                <path d="M79.3692421,42.9130282 L79.3692421,37.6095355 L72.5471158,37.6038062 L69.2423789,40.986048 L69.2423789,48.3406573 L74.984,42.4699564 C76.0970737,41.3279007 77.8998316,41.3279007 79.0129053,42.4699564 C79.1470105,42.6074614 79.2657895,42.7564252 79.3692421,42.9130282 M71.3727368,31.754113 L82.2371789,31.754113 C83.8119579,31.754113 85.0648842,33.048952 85.0648842,34.6627264 L85.0725474,55.4756405 C85.0725474,57.0894148 83.7928,58.4071714 82.2180211,58.4071714 C80.6451579,58.4071714 79.3692421,57.0989638 79.3692421,55.4851895 L79.3692421,46.1558551 C79.2638737,46.3143679 79.1431789,46.4671512 79.0052421,46.6084759 L68.2557474,57.5439453 C67.7442316,58.0557696 67.1522526,58.3727951 66.3897684,58.3727951 C64.8149895,58.3727951 63.5390737,57.0531288 63.5390737,55.4393545 L63.5390737,39.7427733 C63.5390737,39.0686167 63.7747158,38.4613028 64.1463789,37.9666667 L69.6542737,32.3232311 C70.1274737,31.9622803 70.7386105,31.754113 71.3727368,31.754113" id="Fill-35" fill="#FFFFFF" sketch:type="MSShapeGroup"></path>
                <path d="M27.5682105,96.6297502 L23.6312632,96.6297502 L23.6312632,97.4165845 L25.0700211,97.4165845 L25.0700211,102.299923 L26.0145053,102.299923 L26.0145053,97.4165845 L27.4456,97.4165845 L27.5682105,96.6297502" id="Fill-36" fill="#000000" sketch:type="MSShapeGroup"></path>
                <path d="M31.5894526,100.472252 L31.5894526,100.283182 C31.5894526,99.3168276 31.4093684,98.8088229 31.0472842,98.4803387 C30.6928632,98.1614034 30.3154526,98.0544551 29.9054737,98.0544551 C29.3786316,98.0544551 28.9667368,98.2263364 28.6295579,98.6102046 C28.2693895,99.0208099 28.1122947,99.5039873 28.1122947,100.233528 C28.1122947,101.560833 28.8517895,102.404961 30.0280842,102.404961 C30.5874947,102.404961 31.0875158,102.225441 31.5243158,101.856851 L31.1698947,101.306831 C30.8576211,101.578021 30.5204421,101.717436 30.1353684,101.717436 C29.3211579,101.717436 29.1065895,101.110122 29.1065895,100.537185 L29.1065895,100.472252 L31.5894526,100.472252 L31.5894526,100.472252 Z M30.6526316,99.8076442 L29.1161684,99.8076442 C29.1161684,99.1353974 29.3958737,98.734341 29.9054737,98.734341 C30.3556842,98.734341 30.6526316,99.1353974 30.6526316,99.8076442 L30.6526316,99.8076442 Z" id="Fill-37" fill="#000000" sketch:type="MSShapeGroup"></path>
                <path d="M37.5897053,96.6297502 L35.7409684,99.276722 L37.6567579,102.299923 L38.8886105,102.299923 L36.7850737,99.2595339 L38.7583368,96.6297502 L37.5897053,96.6297502 L37.5897053,96.6297502 Z M34.7715789,102.299923 L35.7333053,102.299923 L35.7333053,96.6297502 L34.7715789,96.6297502 L34.7715789,102.299923 Z" id="Fill-38" fill="#000000" sketch:type="MSShapeGroup"></path>
                <path d="M42.9922316,101.896957 C42.6722947,101.675421 42.6224842,101.4959 42.6301474,100.938241 L42.6473895,99.7503504 C42.6550526,99.1353974 42.6550526,98.9138615 42.5803368,98.734341 C42.4002526,98.2836301 41.9653684,98.0468159 41.3159158,98.0468159 C40.6894526,98.0468159 40.1721895,98.2167874 39.5476421,98.6102046 L39.9499579,99.2595339 C39.9499579,99.2595339 40.5917474,98.7839956 41.1913895,98.7839956 C41.6856632,98.7839956 41.7680421,99.037998 41.7680421,99.5116264 L41.7680421,99.7350721 L41.4883368,99.7350721 C40.1568632,99.7350721 39.4326947,100.21634 39.4326947,101.176965 C39.4326947,101.896957 39.8599158,102.42215 40.8139789,102.42215 C41.2584421,102.42215 41.6186105,102.290374 41.9557895,101.914145 C42.0554105,102.175786 42.2680632,102.372495 42.5228632,102.469894 L42.9922316,101.896957 L42.9922316,101.896957 Z M41.7508,100.348115 L41.7335579,101.331658 C41.5534737,101.5933 41.2737684,101.765181 40.9864,101.765181 C40.6243158,101.765181 40.4116632,101.520728 40.4116632,101.127311 C40.4116632,100.602118 40.6817895,100.340476 41.5860421,100.340476 C41.6530947,100.340476 41.7508,100.348115 41.7508,100.348115 L41.7508,100.348115 Z" id="Fill-39" fill="#000000" sketch:type="MSShapeGroup"></path>
                <path d="M47.5479789,100.136128 C47.5479789,98.6942354 46.8161474,98.064004 45.9789474,98.064004 C45.5421474,98.064004 45.1302526,98.2358853 44.8677895,98.5548206 C44.8601263,98.3008182 44.8428842,98.1862307 44.8026526,98.0468159 L43.9712,98.1938699 C44.0286737,98.4975268 44.0535789,98.7095137 44.0535789,99.2270674 L44.0535789,104.060751 L44.9252632,103.841125 L44.9252632,102.456526 C44.9252632,102.227351 44.9080211,102.045921 44.9080211,102.045921 C45.1953895,102.267456 45.5421474,102.382044 45.8946526,102.382044 C46.956,102.382044 47.5479789,101.513089 47.5479789,100.136128 M45.8046105,98.8088229 C46.3965895,98.8088229 46.5766737,99.3091885 46.5766737,100.235438 C46.5766737,101.218981 46.3084632,101.669691 45.6973263,101.669691 C45.4272,101.669691 45.1398316,101.513089 44.9252632,101.299192 L44.9252632,99.2347066 C45.1724,98.9558769 45.4750947,98.8088229 45.8046105,98.8088229" id="Fill-40" fill="#000000" sketch:type="MSShapeGroup"></path>
                <path d="M50.1726105,98.0544551 C49.0710316,98.0544551 48.3545263,98.9062223 48.3545263,100.233528 C48.3545263,101.560833 49.0633684,102.404961 50.1879368,102.404961 C51.3144211,102.404961 52.0309263,101.578021 52.0309263,100.243077 C52.0309263,98.9310496 51.3565684,98.0544551 50.1726105,98.0544551 M50.1802737,98.734341 C50.7071158,98.734341 51.0347158,99.0857428 51.0347158,100.258355 C51.0347158,101.299192 50.7396842,101.734624 50.2051789,101.734624 C49.6630105,101.734624 49.3584,101.381313 49.3584,100.176234 C49.3584,99.1678638 49.6055368,98.734341 50.1802737,98.734341" id="Fill-41" fill="#000000" sketch:type="MSShapeGroup"></path>
                <path d="M55.3624842,98.1041097 C55.2552,98.0544551 55.1728211,98.0391767 55.0425474,98.0391767 C54.6383158,98.0391767 54.3107158,98.2511636 53.9812,98.7018746 C53.9812,98.4726995 53.9237263,98.2358853 53.8260211,98.0468159 L52.9945684,98.2607126 C53.0846105,98.5128052 53.1420842,98.8508384 53.1420842,99.3741214 L53.1420842,102.299923 L54.0463368,102.299923 L54.0463368,99.4963481 C54.1287158,99.1602247 54.4505684,98.8833048 54.8279789,98.8833048 C54.9276,98.8833048 54.9927368,98.9062223 55.0827789,98.9405986 L55.3624842,98.1041097" id="Fill-42" fill="#000000" sketch:type="MSShapeGroup"></path>
                <path d="M59.2917684,100.472252 L59.2917684,100.283182 C59.2917684,99.3168276 59.1116842,98.8088229 58.7496,98.4803387 C58.3951789,98.1614034 58.0177684,98.0544551 57.6058737,98.0544551 C57.0809474,98.0544551 56.6690526,98.2263364 56.3318737,98.6102046 C55.9717053,99.0208099 55.8146105,99.5039873 55.8146105,100.233528 C55.8146105,101.560833 56.5541053,102.404961 57.7304,102.404961 C58.2898105,102.404961 58.7898316,102.225441 59.2266316,101.856851 L58.8722105,101.306831 C58.5599368,101.578021 58.2227579,101.717436 57.8376842,101.717436 C57.0234737,101.717436 56.8089053,101.110122 56.8089053,100.537185 L56.8089053,100.472252 L59.2917684,100.472252 L59.2917684,100.472252 Z M58.3549474,99.8076442 L56.8184842,99.8076442 C56.8184842,99.1353974 57.0962737,98.734341 57.6058737,98.734341 C58.058,98.734341 58.3549474,99.1353974 58.3549474,99.8076442 L58.3549474,99.8076442 Z" id="Fill-43" fill="#000000" sketch:type="MSShapeGroup"></path>
                <path d="M60.8550526,97.5388112 C61.1922316,97.5388112 61.4623579,97.2676207 61.4623579,96.9410463 C61.4623579,96.5972837 61.1922316,96.3337324 60.8703789,96.3337324 C60.5332,96.3337324 60.2707368,96.6049229 60.2707368,96.9410463 C60.2707368,97.2676207 60.5255368,97.5388112 60.8550526,97.5388112 M61.3148421,102.299923 L61.3148421,98.0544551 L60.4029263,98.2186972 L60.4029263,102.299923 L61.3148421,102.299923" id="Fill-44" fill="#000000" sketch:type="MSShapeGroup"></path>
                <path d="M66.0008632,102.299923 L66.0008632,99.3741214 C66.0008632,98.9558769 65.9682947,98.7687173 65.8610105,98.5643696 C65.7211579,98.2931791 65.3437474,98.0544551 64.8494737,98.0544551 C64.4069263,98.0544551 63.9873684,98.2282461 63.5754737,98.596836 C63.5754737,98.596836 63.5927158,98.3905785 63.5927158,98.128937 L63.5927158,97.2447032 C63.5927158,96.8417371 63.5678105,96.5056137 63.5103368,96.2687995 L62.5984211,96.465508 C62.6463158,96.6794048 62.6788842,96.99834 62.6788842,97.3669299 L62.6788842,102.299923 L63.5927158,102.299923 L63.5927158,99.3263766 C63.8877474,99.0227197 64.2747368,98.8164621 64.5946737,98.8164621 C64.9395158,98.8164621 65.1215158,98.9654259 65.1215158,99.4810698 L65.1215158,102.299923 L66.0008632,102.299923" id="Fill-45" fill="#000000" sketch:type="MSShapeGroup"></path>
                <path d="M70.6217474,101.896957 C70.2998947,101.675421 70.252,101.4959 70.2596632,100.938241 L70.2769053,99.7503504 C70.2845684,99.1353974 70.2845684,98.9138615 70.2098526,98.734341 C70.0297684,98.2836301 69.5929684,98.0468159 68.9454316,98.0468159 C68.3189684,98.0468159 67.8017053,98.2167874 67.1771579,98.6102046 L67.5794737,99.2595339 C67.5794737,99.2595339 68.2212632,98.7839956 68.8209053,98.7839956 C69.3151789,98.7839956 69.3975579,99.037998 69.3975579,99.5116264 L69.3975579,99.7350721 L69.1178526,99.7350721 C67.7863789,99.7350721 67.0622105,100.21634 67.0622105,101.176965 C67.0622105,101.896957 67.4894316,102.42215 68.4434947,102.42215 C68.8860421,102.42215 69.2481263,102.290374 69.5853053,101.914145 C69.6849263,102.175786 69.8975789,102.372495 70.1523789,102.469894 L70.6217474,101.896957 L70.6217474,101.896957 Z M69.3803158,100.348115 L69.3630737,101.331658 C69.1829895,101.5933 68.9032842,101.765181 68.6159158,101.765181 C68.2538316,101.765181 68.0411789,101.520728 68.0411789,101.127311 C68.0411789,100.602118 68.3113053,100.340476 69.2155579,100.340476 C69.2826105,100.340476 69.3803158,100.348115 69.3803158,100.348115 L69.3803158,100.348115 Z" id="Fill-46" fill="#000000" sketch:type="MSShapeGroup"></path>
                <path d="M74.8556421,102.299923 L74.8556421,99.2022401 C74.8556421,98.4402331 74.4111789,98.0544551 73.7713053,98.0544551 C73.3268421,98.0544551 72.9398526,98.2511636 72.4953895,98.6293025 C72.4953895,98.4077666 72.4474947,98.2282461 72.3478737,98.0391767 L71.526,98.2683518 C71.6409474,98.5643696 71.6830947,98.8164621 71.6830947,99.2518947 L71.6830947,102.299923 L72.5701053,102.299923 L72.5701053,99.2920003 C72.8421474,99.0227197 73.2195579,98.8260111 73.4820211,98.8260111 C73.8287789,98.8260111 73.9590526,98.9807042 73.9590526,99.5460027 L73.9590526,102.299923 L74.8556421,102.299923" id="Fill-47" fill="#000000" sketch:type="MSShapeGroup"></path>
                <path d="M79.4937684,101.896957 C79.1738316,101.675421 79.1240211,101.4959 79.1316842,100.938241 L79.1489263,99.7503504 C79.1565895,99.1353974 79.1565895,98.9138615 79.0818737,98.734341 C78.9017895,98.2836301 78.4669053,98.0468159 77.8174526,98.0468159 C77.1929053,98.0468159 76.6737263,98.2167874 76.0491789,98.6102046 L76.4514947,99.2595339 C76.4514947,99.2595339 77.0932842,98.7839956 77.6929263,98.7839956 C78.1872,98.7839956 78.2695789,99.037998 78.2695789,99.5116264 L78.2695789,99.7350721 L77.9898737,99.7350721 C76.6584,99.7350721 75.9342316,100.21634 75.9342316,101.176965 C75.9342316,101.896957 76.3614526,102.42215 77.3155158,102.42215 C77.7599789,102.42215 78.1201474,102.290374 78.4573263,101.914145 C78.5569474,102.175786 78.7696,102.372495 79.0244,102.469894 L79.4937684,101.896957 L79.4937684,101.896957 Z M78.2523368,100.348115 L78.2350947,101.331658 C78.0550105,101.5933 77.7753053,101.765181 77.4879368,101.765181 C77.1258526,101.765181 76.9132,101.520728 76.9132,101.127311 C76.9132,100.602118 77.1833263,100.340476 78.0875789,100.340476 C78.1546316,100.340476 78.2523368,100.348115 78.2523368,100.348115 L78.2523368,100.348115 Z" id="Fill-48" fill="#000000" sketch:type="MSShapeGroup"></path>
                <path d="M86.6377474,102.299923 L84.8215789,96.6202012 L83.7276632,96.6202012 L81.8616842,102.299923 L82.8406526,102.299923 L83.3004421,100.808375 L85.1415158,100.808375 L85.6013053,102.299923 L86.6377474,102.299923 L86.6377474,102.299923 Z M84.9288632,100.021541 L83.5303368,100.021541 C83.6625263,99.6453119 84.2449263,97.6037441 84.2449263,97.6037441 L84.2545053,97.6037441 C84.2947368,97.82528 84.8713895,99.8993142 84.9288632,100.021541 L84.9288632,100.021541 Z M82.9881684,96.1694903 L85.4135579,96.1694903 L85.4135579,95.5965526 L82.9881684,95.5965526 L82.9881684,96.1694903 Z" id="Fill-49" fill="#000000" sketch:type="MSShapeGroup"></path>
                <path d="M92.4521684,98.1537643 L91.5153474,98.1537643 L91.0881263,100.086474 C90.9808421,100.571561 90.8812211,101.201792 90.8812211,101.201792 L90.8582316,101.201792 C90.8582316,101.201792 90.7662737,100.691878 90.5938526,100.021541 L90.1264,98.1537643 L89.2374737,98.1537643 L88.7029684,100.071196 C88.5477895,100.642223 88.4654105,101.186514 88.4654105,101.186514 L88.4405053,101.186514 C88.4405053,101.186514 88.3428,100.609757 88.2278526,100.096023 L87.7738105,98.0888313 L86.8791368,98.211058 L88.0132842,102.317111 L88.8600632,102.317111 L89.362,100.447425 C89.5669895,99.6854175 89.6321263,99.276722 89.6321263,99.276722 L89.6493684,99.276722 C89.6493684,99.276722 89.7892211,99.9145926 89.9194947,100.405409 L90.4290947,102.317111 L91.2758737,102.317111 L92.4521684,98.1537643" id="Fill-50" fill="#000000" sketch:type="MSShapeGroup"></path>
                <path d="M96.6036842,102.299923 L96.6036842,99.3741214 C96.6036842,98.9558769 96.5711158,98.7687173 96.4638316,98.5643696 C96.3239789,98.2931791 95.9465684,98.0544551 95.4522947,98.0544551 C95.0097474,98.0544551 94.5901895,98.2282461 94.1782947,98.596836 C94.1782947,98.596836 94.1955368,98.3905785 94.1955368,98.128937 L94.1955368,97.2447032 C94.1955368,96.8417371 94.1706316,96.5056137 94.1131579,96.2687995 L93.2012421,96.465508 C93.2491368,96.6794048 93.2817053,96.99834 93.2817053,97.3669299 L93.2817053,102.299923 L94.1955368,102.299923 L94.1955368,99.3263766 C94.4905684,99.0227197 94.8775579,98.8164621 95.1974947,98.8164621 C95.5442526,98.8164621 95.7243368,98.9654259 95.7243368,99.4810698 L95.7243368,102.299923 L96.6036842,102.299923" id="Fill-51" fill="#000000" sketch:type="MSShapeGroup"></path>
                <path d="M98.3892,97.5388112 C98.7263789,97.5388112 98.9965053,97.2676207 98.9965053,96.9410463 C98.9965053,96.5972837 98.7263789,96.3337324 98.4045263,96.3337324 C98.0673474,96.3337324 97.8048842,96.6049229 97.8048842,96.9410463 C97.8048842,97.2676207 98.0596842,97.5388112 98.3892,97.5388112 M98.8489895,102.299923 L98.8489895,98.0544551 L97.9370737,98.2186972 L97.9370737,102.299923 L98.8489895,102.299923" id="Fill-52" fill="#000000" sketch:type="MSShapeGroup"></path>
                <path d="M103.4124,102.299923 L103.4124,99.2022401 C103.4124,98.4402331 102.967937,98.0544551 102.328063,98.0544551 C101.8836,98.0544551 101.496611,98.2511636 101.054063,98.6293025 C101.054063,98.4077666 101.004253,98.2282461 100.904632,98.0391767 L100.082758,98.2683518 C100.197705,98.5643696 100.239853,98.8164621 100.239853,99.2518947 L100.239853,102.299923 L101.126863,102.299923 L101.126863,99.2920003 C101.398905,99.0227197 101.776316,98.8260111 102.038779,98.8260111 C102.385537,98.8260111 102.515811,98.9807042 102.515811,99.5460027 L102.515811,102.299923 L103.4124,102.299923" id="Fill-53" fill="#000000" sketch:type="MSShapeGroup"></path>
                <path d="M108.048611,101.896957 C107.728674,101.675421 107.678863,101.4959 107.686526,100.938241 L107.703768,99.7503504 C107.711432,99.1353974 107.711432,98.9138615 107.636716,98.734341 C107.456632,98.2836301 107.021747,98.0468159 106.372295,98.0468159 C105.747747,98.0468159 105.228568,98.2167874 104.604021,98.6102046 L105.006337,99.2595339 C105.006337,99.2595339 105.648126,98.7839956 106.247768,98.7839956 C106.742042,98.7839956 106.824421,99.037998 106.824421,99.5116264 L106.824421,99.7350721 L106.544716,99.7350721 C105.213242,99.7350721 104.489074,100.21634 104.489074,101.176965 C104.489074,101.896957 104.916295,102.42215 105.870358,102.42215 C106.314821,102.42215 106.674989,102.290374 107.012168,101.914145 C107.111789,102.175786 107.324442,102.372495 107.579242,102.469894 L108.048611,101.896957 L108.048611,101.896957 Z M106.807179,100.348115 L106.789937,101.331658 C106.609853,101.5933 106.330147,101.765181 106.042779,101.765181 C105.680695,101.765181 105.468042,101.520728 105.468042,101.127311 C105.468042,100.602118 105.738168,100.340476 106.642421,100.340476 C106.709474,100.340476 106.807179,100.348115 106.807179,100.348115 L106.807179,100.348115 Z" id="Fill-54" fill="#000000" sketch:type="MSShapeGroup"></path>
                <path d="M114.995263,102.299923 L114.995263,96.6297502 L114.0412,96.6297502 L114.0412,98.9062223 L112.102421,98.9062223 L112.102421,96.6297502 L111.1656,96.6297502 L111.1656,102.299923 L112.102421,102.299923 L112.102421,99.6777783 L114.0412,99.6777783 L114.0412,102.299923 L114.995263,102.299923" id="Fill-55" fill="#000000" sketch:type="MSShapeGroup"></path>
                <path d="M119.863284,102.005815 C119.863284,102.005815 119.608484,101.801467 119.608484,101.175055 L119.608484,98.0544551 L118.7368,98.2186972 L118.7368,101.186514 C118.596947,101.480622 118.2272,101.726985 117.922589,101.726985 C117.388084,101.726985 117.315284,101.350756 117.315284,100.831293 L117.315284,98.0544551 L116.426358,98.2186972 L116.426358,101.029911 C116.426358,101.547465 116.493411,101.816745 116.658168,102.011544 C116.863158,102.259817 117.225242,102.42215 117.692695,102.42215 C118.169726,102.42215 118.572042,102.259817 118.876653,101.916055 C118.951368,102.152869 119.056737,102.299923 119.238737,102.431699 L119.863284,102.005815" id="Fill-56" fill="#000000" sketch:type="MSShapeGroup"></path>
                <path d="M124.219789,102.299923 L124.219789,99.2022401 C124.219789,98.4402331 123.775326,98.0544551 123.135453,98.0544551 C122.690989,98.0544551 122.304,98.2511636 121.861453,98.6293025 C121.861453,98.4077666 121.811642,98.2282461 121.712021,98.0391767 L120.890147,98.2683518 C121.005095,98.5643696 121.047242,98.8164621 121.047242,99.2518947 L121.047242,102.299923 L121.934253,102.299923 L121.934253,99.2920003 C122.206295,99.0227197 122.583705,98.8260111 122.846168,98.8260111 C123.192926,98.8260111 123.3232,98.9807042 123.3232,99.5460027 L123.3232,102.299923 L124.219789,102.299923" id="Fill-57" fill="#000000" sketch:type="MSShapeGroup"></path>
                <path d="M129.4748,98.5452716 L129.055242,97.9799732 C128.825347,98.1690426 128.570547,98.266442 128.298505,98.266442 C127.961326,98.266442 127.624147,98.0544551 127.032168,98.0544551 C126.037874,98.0544551 125.373095,98.6102046 125.373095,99.4562425 C125.373095,100.046368 125.693032,100.447425 126.317579,100.626945 C125.873116,100.76636 125.528274,100.930602 125.528274,101.341207 C125.528274,101.749903 125.775411,101.971439 126.892316,101.971439 C127.666295,101.971439 128.043705,102.093665 128.043705,102.544376 C128.043705,102.930154 127.698863,103.191796 127.057074,103.191796 C126.474674,103.191796 126.145158,102.979809 126.145158,102.594031 C126.145158,102.462255 126.210295,102.298013 126.210295,102.298013 L125.355853,102.298013 C125.355853,102.298013 125.273474,102.544376 125.273474,102.741085 C125.273474,103.52028 126.055116,103.871682 127.131789,103.871682 C128.241032,103.871682 128.980526,103.398053 128.980526,102.51191 C128.980526,101.667782 128.265937,101.331658 127.599242,101.331658 C126.622189,101.331658 126.564716,101.31638 126.564716,101.159777 C126.564716,101.028001 126.827179,100.873308 127.124126,100.76636 C128.101179,100.76636 128.700821,100.218249 128.700821,99.4963481 C128.700821,99.0456372 128.430695,98.7668075 128.430695,98.7668075 C128.430695,98.7668075 128.553305,98.8164621 128.750632,98.8164621 C129.030337,98.8164621 129.244905,98.7419802 129.4748,98.5452716 M127.024505,98.734341 C127.501537,98.734341 127.739095,98.9807042 127.739095,99.4466935 C127.739095,99.9069534 127.493874,100.151407 127.024505,100.151407 C126.580042,100.151407 126.309916,99.9317807 126.309916,99.4562425 C126.309916,98.9883434 126.564716,98.734341 127.024505,98.734341" id="Fill-58" fill="#000000" sketch:type="MSShapeGroup"></path>
                <path d="M133.396421,101.896957 C133.076484,101.675421 133.026674,101.4959 133.034337,100.938241 L133.051579,99.7503504 C133.059242,99.1353974 133.059242,98.9138615 132.984526,98.734341 C132.804442,98.2836301 132.369558,98.0468159 131.720105,98.0468159 C131.095558,98.0468159 130.576379,98.2167874 129.951832,98.6102046 L130.354147,99.2595339 C130.354147,99.2595339 130.995937,98.7839956 131.595579,98.7839956 C132.089853,98.7839956 132.172232,99.037998 132.172232,99.5116264 L132.172232,99.7350721 L131.892526,99.7350721 C130.561053,99.7350721 129.836884,100.21634 129.836884,101.176965 C129.836884,101.896957 130.264105,102.42215 131.218168,102.42215 C131.662632,102.42215 132.0228,102.290374 132.359979,101.914145 C132.4596,102.175786 132.672253,102.372495 132.927053,102.469894 L133.396421,101.896957 L133.396421,101.896957 Z M132.154989,100.348115 L132.137747,101.331658 C131.957663,101.5933 131.677958,101.765181 131.390589,101.765181 C131.028505,101.765181 130.815853,101.520728 130.815853,101.127311 C130.815853,100.602118 131.085979,100.340476 131.990232,100.340476 C132.057284,100.340476 132.154989,100.348115 132.154989,100.348115 L132.154989,100.348115 Z" id="Fill-59" fill="#000000" sketch:type="MSShapeGroup"></path>
                <path d="M142.571137,96.6297502 L141.584505,96.6297502 L141.042337,99.2022401 C140.902484,99.8496596 140.712821,101.047099 140.712821,101.047099 L140.687916,101.047099 C140.687916,101.047099 140.548063,100.12085 140.410126,99.4486033 L139.818147,96.6297502 L138.7568,96.6297502 L138.164821,99.3340158 C138.017305,100.021541 137.852547,101.087205 137.852547,101.087205 L137.827642,101.087205 C137.827642,101.087205 137.720358,100.185783 137.523032,99.267173 L136.955958,96.6297502 L135.946337,96.6297502 L137.302716,102.332389 L138.411958,102.332389 L138.961789,99.6777783 C139.101642,98.9902532 139.249158,98.064004 139.249158,98.064004 L139.274063,98.064004 C139.274063,98.064004 139.366021,98.8508384 139.553768,99.7026056 L140.138084,102.332389 L141.222421,102.332389 L142.571137,96.6297502" id="Fill-60" fill="#000000" sketch:type="MSShapeGroup"></path>
                <path d="M146.782042,102.299923 L146.782042,99.3741214 C146.782042,98.9558769 146.749474,98.7687173 146.642189,98.5643696 C146.502337,98.2931791 146.124926,98.0544551 145.630653,98.0544551 C145.188105,98.0544551 144.768547,98.2282461 144.356653,98.596836 C144.356653,98.596836 144.373895,98.3905785 144.373895,98.128937 L144.373895,97.2447032 C144.373895,96.8417371 144.348989,96.5056137 144.291516,96.2687995 L143.3796,96.465508 C143.427495,96.6794048 143.461979,96.99834 143.461979,97.3669299 L143.461979,102.299923 L144.373895,102.299923 L144.373895,99.3263766 C144.668926,99.0227197 145.055916,98.8164621 145.375853,98.8164621 C145.722611,98.8164621 145.902695,98.9654259 145.902695,99.4810698 L145.902695,102.299923 L146.782042,102.299923" id="Fill-61" fill="#000000" sketch:type="MSShapeGroup"></path>
                <path d="M151.402926,101.896957 C151.082989,101.675421 151.033179,101.4959 151.040842,100.938241 L151.058084,99.7503504 C151.065747,99.1353974 151.065747,98.9138615 150.991032,98.734341 C150.810947,98.2836301 150.376063,98.0468159 149.726611,98.0468159 C149.102063,98.0468159 148.582884,98.2167874 147.958337,98.6102046 L148.360653,99.2595339 C148.360653,99.2595339 149.002442,98.7839956 149.602084,98.7839956 C150.096358,98.7839956 150.178737,99.037998 150.178737,99.5116264 L150.178737,99.7350721 L149.899032,99.7350721 C148.567558,99.7350721 147.843389,100.21634 147.843389,101.176965 C147.843389,101.896957 148.270611,102.42215 149.224674,102.42215 C149.669137,102.42215 150.029305,102.290374 150.366484,101.914145 C150.466105,102.175786 150.678758,102.372495 150.933558,102.469894 L151.402926,101.896957 L151.402926,101.896957 Z M150.161495,100.348115 L150.144253,101.331658 C149.964168,101.5933 149.684463,101.765181 149.397095,101.765181 C149.035011,101.765181 148.822358,101.520728 148.822358,101.127311 C148.822358,100.602118 149.092484,100.340476 149.996737,100.340476 C150.063789,100.340476 150.161495,100.348115 150.161495,100.348115 L150.161495,100.348115 Z" id="Fill-62" fill="#000000" sketch:type="MSShapeGroup"></path>
                <path d="M154.667432,98.1041097 C154.560147,98.0544551 154.477768,98.0391767 154.347495,98.0391767 C153.943263,98.0391767 153.615663,98.2511636 153.286147,98.7018746 C153.286147,98.4726995 153.228674,98.2358853 153.130968,98.0468159 L152.299516,98.2607126 C152.389558,98.5128052 152.447032,98.8508384 152.447032,99.3741214 L152.447032,102.299923 L153.351284,102.299923 L153.351284,99.4963481 C153.433663,99.1602247 153.755516,98.8833048 154.132926,98.8833048 C154.232547,98.8833048 154.297684,98.9062223 154.387726,98.9405986 L154.667432,98.1041097" id="Fill-63" fill="#000000" sketch:type="MSShapeGroup"></path>
                <path d="M158.688674,101.896957 C158.368737,101.675421 158.318926,101.4959 158.326589,100.938241 L158.343832,99.7503504 C158.351495,99.1353974 158.351495,98.9138615 158.276779,98.734341 C158.096695,98.2836301 157.659895,98.0468159 157.012358,98.0468159 C156.387811,98.0468159 155.868632,98.2167874 155.244084,98.6102046 L155.6464,99.2595339 C155.6464,99.2595339 156.288189,98.7839956 156.887832,98.7839956 C157.382105,98.7839956 157.464484,99.037998 157.464484,99.5116264 L157.464484,99.7350721 L157.184779,99.7350721 C155.853305,99.7350721 155.129137,100.21634 155.129137,101.176965 C155.129137,101.896957 155.556358,102.42215 156.510421,102.42215 C156.954884,102.42215 157.315053,102.290374 157.652232,101.914145 C157.751853,102.175786 157.964505,102.372495 158.219305,102.469894 L158.688674,101.896957 L158.688674,101.896957 Z M157.447242,100.348115 L157.43,101.331658 C157.249916,101.5933 156.970211,101.765181 156.682842,101.765181 C156.320758,101.765181 156.108105,101.520728 156.108105,101.127311 C156.108105,100.602118 156.378232,100.340476 157.282484,100.340476 C157.347621,100.340476 157.447242,100.348115 157.447242,100.348115 L157.447242,100.348115 Z" id="Fill-64" fill="#000000" sketch:type="MSShapeGroup"></path>
                <g id="Group-68" transform="translate(1.596491, 0.797619)">
                    <mask id="mask-6" sketch:name="Clip 66" fill="white">
                        <use xlink:href="#path-5"></use>
                    </mask>
                    <g id="Clip-66"></g>
                    <path d="M157.333572,133.109363 L21.7454877,133.109363 C9.84843509,133.109363 0.204350877,123.495469 0.204350877,111.63757 L0.204350877,0.233668679 L178.872793,0.233668679 L178.872793,111.63757 C178.872793,123.495469 169.230625,133.109363 157.333572,133.109363" id="Fill-65" fill="#FFFFFF" sketch:type="MSShapeGroup" mask="url(#mask-6)"></path>
                    <path d="M21.7378246,0.632815225 L157.341235,0.632815225 L157.341235,105.0316 L21.7378246,105.0316 L21.7378246,0.632815225 Z" id="Fill-67" fill="#00356C" sketch:type="MSShapeGroup" mask="url(#mask-6)"></path>
                </g>
                <g id="Group-72" transform="translate(22.989474, 0.954896)">
                    <mask id="mask-8" sketch:name="Clip 70" fill="white">
                        <use xlink:href="#path-7"></use>
                    </mask>
                    <g id="Clip-70"></g>
                    <path d="M0.344842105,104.878142 C0.344842105,90.8048843 10.6058105,82.0312995 23.2615158,82.0312995 L135.948253,82.0312995 L135.948253,84.4338179 L23.2615158,84.4338179 C11.9487789,84.4338179 2.75298947,92.1035429 2.75298947,104.878142 L0.344842105,104.878142" id="Fill-69" fill="#FFFFFF" sketch:type="MSShapeGroup" mask="url(#mask-8)"></path>
                    <path d="M135.948253,104.878142 L2.07671579,104.878142 C2.07671579,91.698667 11.6077684,83.7596613 23.2615158,83.7596613 L135.948253,83.7596613 L135.948253,104.878142" id="Fill-71" fill="#000000" sketch:type="MSShapeGroup" mask="url(#mask-8)"></path>
                </g>
                <path d="M39.7737053,92.5103286 L39.7737053,97.6228421 L40.8063158,97.6228421 L40.8063158,95.7397871 L41.3753053,95.7397871 C41.9423789,95.7397871 42.1646105,95.6805835 42.4002526,95.5698156 C42.9615789,95.3062643 43.2853474,94.7619735 43.2853474,94.0839973 C43.2853474,93.4957814 43.0286316,93.0259725 42.5477684,92.7605114 C42.2604,92.5981791 41.9941053,92.5103286 41.1243368,92.5103286 L39.7737053,92.5103286 L39.7737053,92.5103286 Z M40.8063158,93.3410882 L41.4634316,93.3410882 C41.8983158,93.3410882 42.1569474,93.627557 42.1569474,94.1069148 C42.1569474,94.3494584 42.1205474,94.4965124 42.0324211,94.6359272 C41.8906526,94.8498239 41.7661263,94.9013883 41.3446526,94.9013883 L40.8063158,94.9013883 L40.8063158,93.3410882 L40.8063158,93.3410882 Z" id="Fill-73" fill="#FFFFFF" sketch:type="MSShapeGroup"></path>
                <path d="M44.4712211,92.5103286 L44.4712211,97.6228421 L45.4827579,97.6228421 L45.4827579,95.4896043 C45.5498105,95.4972435 45.5938737,95.5125218 45.6456,95.5335295 C45.8295158,95.6156506 45.9846947,95.8658333 46.4942947,96.7863531 C46.6935368,97.145394 46.774,97.2867186 46.9732421,97.6228421 L48.1916842,97.6228421 C48.1916842,97.6228421 47.2548632,96.0052482 46.9579158,95.6366583 C46.8927789,95.5488078 46.8487158,95.5048826 46.7452632,95.4246714 C47.3793895,95.409393 47.8889895,94.7772518 47.8889895,94.0114252 C47.8889895,93.1138229 47.2912632,92.5103286 46.3831789,92.5103286 L44.4712211,92.5103286 L44.4712211,92.5103286 Z M45.4827579,93.3353588 L45.8525053,93.3353588 C46.1034737,93.3353588 46.3161263,93.3640057 46.4349053,93.4079309 C46.6782105,93.4976911 46.8046526,93.7173172 46.8046526,94.0343427 C46.8046526,94.2463296 46.7299368,94.4315795 46.6054105,94.5499866 C46.4636421,94.6741231 46.2720632,94.7180483 45.8295158,94.7180483 L45.4827579,94.7180483 L45.4827579,93.3353588 L45.4827579,93.3353588 Z" id="Fill-74" fill="#FFFFFF" sketch:type="MSShapeGroup"></path>
                <path d="M49.5423158,92.5103286 L49.5423158,97.6228421 L52.5309474,97.6228421 L52.5309474,96.7405181 L50.5902526,96.7405181 L50.5902526,95.3711972 L52.0443368,95.3711972 L52.0443368,94.5327985 L50.5749263,94.5327985 L50.5749263,93.3487274 L52.3317053,93.3487274 L52.4658105,92.5103286 L49.5423158,92.5103286" id="Fill-75" fill="#FFFFFF" sketch:type="MSShapeGroup"></path>
                <path d="M53.326,92.5103286 L55.0674526,97.6591281 L56.0042737,97.6591281 L57.7917053,92.5103286 L56.7054526,92.5103286 L55.8356842,95.0408032 C55.7398947,95.3196328 55.6057895,95.7474262 55.5406526,96.0625419 C55.4582737,95.6882227 55.3701474,95.4017539 55.3030947,95.1725788 L54.4544,92.5103286 L53.326,92.5103286" id="Fill-76" fill="#FFFFFF" sketch:type="MSShapeGroup"></path>
                <path d="M58.8109053,92.5103286 L58.8109053,97.6228421 L61.7995368,97.6228421 L61.7995368,96.7405181 L59.8588421,96.7405181 L59.8588421,95.3711972 L61.3129263,95.3711972 L61.3129263,94.5327985 L59.8435158,94.5327985 L59.8435158,93.3487274 L61.6002947,93.3487274 L61.7344,92.5103286 L58.8109053,92.5103286" id="Fill-77" fill="#FFFFFF" sketch:type="MSShapeGroup"></path>
                <path d="M63.3551579,92.5103286 L63.3551579,97.6228421 L64.3513684,97.6228421 L64.3226316,95.4380399 C64.3149684,95.0121563 64.3073053,94.408662 64.2709053,93.9885077 C64.3666947,94.3055332 64.6770526,95.0274346 64.9644211,95.6653052 L65.8418526,97.6228421 L66.9204421,97.6228421 L66.9204421,92.5103286 L65.9376421,92.5103286 L65.9606316,94.5996412 C65.9682947,94.9529527 66.0046947,95.6080114 66.0410947,96.0052482 C65.9376421,95.6366583 65.7384,95.1000067 65.4797684,94.555716 L64.4988842,92.5103286 L63.3551579,92.5103286" id="Fill-78" fill="#FFFFFF" sketch:type="MSShapeGroup"></path>
                <path d="M68.1752842,92.5103286 L68.1752842,93.3640057 L69.4301263,93.3640057 L69.4301263,97.6228421 L70.4780632,97.6228421 L70.4780632,93.3640057 L71.7022526,93.3640057 L71.8727579,92.5103286 L68.1752842,92.5103286" id="Fill-79" fill="#FFFFFF" sketch:type="MSShapeGroup"></path>
                <path d="M72.9992421,92.5103286 L74.0759158,92.5103286 L74.0759158,97.6228421 L72.9992421,97.6228421 L72.9992421,92.5103286 Z" id="Fill-80" fill="#FFFFFF" sketch:type="MSShapeGroup"></path>
                <path d="M77.6412,92.4453957 C77.2561263,92.4453957 76.8806316,92.5332461 76.5779368,92.6955785 C75.8403579,93.1004544 75.4188842,93.9827783 75.4188842,95.0866382 C75.4188842,95.8371865 75.6181263,96.484606 76.0089474,96.9830617 C76.3997684,97.4910664 76.9017053,97.7049631 77.6776,97.7049631 C78.1048211,97.7049631 78.3941053,97.6381204 78.7025474,97.4700587 C79.4477895,97.0651828 79.8462737,96.1962274 79.8462737,95.0427129 C79.8462737,93.4384876 79.0052421,92.4453957 77.6412,92.4453957 M77.6258737,93.2398692 C78.1718737,93.2398692 78.4458316,93.6294668 78.5262947,93.8872887 C78.6144211,94.1737575 78.6584842,94.5499866 78.6584842,95.0713598 C78.6584842,96.373838 78.3557895,96.9181288 77.6412,96.9181288 C77.3978947,96.9181288 77.1909895,96.8589252 77.0281474,96.7424279 C76.7177895,96.520892 76.5702737,95.9689621 76.5702737,95.0866382 C76.5702737,94.4678655 76.6526526,94.0190644 76.8289053,93.6886704 C76.9764211,93.4155701 77.2791158,93.2398692 77.6258737,93.2398692" id="Fill-81" fill="#FFFFFF" sketch:type="MSShapeGroup"></path>
                <path d="M81.2084,92.5103286 L81.2084,97.6228421 L82.2046105,97.6228421 L82.1758737,95.4380399 C82.1682105,95.0121563 82.1605474,94.408662 82.1241474,93.9885077 C82.2199368,94.3055332 82.5283789,95.0274346 82.8176632,95.6653052 L83.6950947,97.6228421 L84.7717684,97.6228421 L84.7717684,92.5103286 L83.7908842,92.5103286 L83.8138737,94.5996412 C83.8215368,94.9529527 83.8579368,95.6080114 83.8943368,96.0052482 C83.7908842,95.6366583 83.5916421,95.1000067 83.3330105,94.555716 L82.3521263,92.5103286 L81.2084,92.5103286" id="Fill-82" fill="#FFFFFF" sketch:type="MSShapeGroup"></path>
                <path d="M86.4768211,96.677495 C86.1913684,96.677495 85.9595579,96.9085798 85.9595579,97.1931388 C85.9595579,97.4815174 86.1913684,97.7183317 86.4825684,97.7183317 C86.7680211,97.7183317 87.0055789,97.4815174 87.0055789,97.1931388 C87.0055789,96.9085798 86.7680211,96.677495 86.4768211,96.677495" id="Fill-83" fill="#FFFFFF" sketch:type="MSShapeGroup"></path>
                <path d="M93.3621684,92.8044366 C93.0824632,92.561893 92.5728632,92.3995607 92.0632632,92.3995607 C91.2375579,92.3995607 90.4980632,92.8407227 90.0995789,93.5836318 C89.8639368,94.0267036 89.7528211,94.5327985 89.7528211,95.1725788 C89.7528211,95.9231271 89.9597263,96.5418997 90.3735368,97.0040694 C90.7950105,97.4834272 91.3390947,97.7126023 92.0479368,97.7126023 C92.6322526,97.7126023 93.0671368,97.5655483 93.4732842,97.2332445 L93.0000842,96.5858249 C92.6973895,96.8283685 92.4253474,96.916219 92.1226526,96.916219 C91.6801053,96.916219 91.3390947,96.7176006 91.1341053,96.3432814 C90.9789263,96.0644517 90.9195368,95.6729443 90.9195368,94.9758702 C90.9195368,94.3800151 91.0076632,93.9522217 91.2069053,93.6581137 C91.3927368,93.3869232 91.7318316,93.2169517 92.0785895,93.2169517 C92.3659579,93.2169517 92.6399158,93.3124413 92.8966316,93.5034205 L93.3621684,92.8044366" id="Fill-84" fill="#FFFFFF" sketch:type="MSShapeGroup"></path>
                <path d="M95.8182105,92.4950503 L94.1361474,97.6228421 L95.2128211,97.6228421 L95.5749053,96.4101241 L97.0807158,96.4101241 L97.4428,97.6228421 L98.5482105,97.6228421 L96.9332,92.4950503 L95.8182105,92.4950503 L95.8182105,92.4950503 Z M95.8258737,95.556447 C95.9369895,95.2184138 96.0021263,94.9758702 96.0998316,94.6072803 C96.1956211,94.2253219 96.3431368,93.6218276 96.3431368,93.6218276 C96.3431368,93.6218276 96.4983158,94.2902549 96.5500421,94.5270691 C96.6592421,95.0197954 96.8297474,95.556447 96.8297474,95.556447 L95.8258737,95.556447 L95.8258737,95.556447 Z" id="Fill-85" fill="#FFFFFF" sketch:type="MSShapeGroup"></path>
                <path d="M99.6996,92.5103286 L99.6996,97.6228421 L100.711137,97.6228421 L100.711137,95.4896043 C100.778189,95.4972435 100.822253,95.5125218 100.873979,95.5335295 C101.057895,95.6156506 101.213074,95.8658333 101.722674,96.7863531 C101.921916,97.145394 102.002379,97.2867186 102.201621,97.6228421 L103.420063,97.6228421 C103.420063,97.6228421 102.481326,96.0052482 102.186295,95.6366583 C102.121158,95.5488078 102.077095,95.5048826 101.973642,95.4246714 C102.607768,95.409393 103.117368,94.7772518 103.117368,94.0114252 C103.117368,93.1138229 102.519642,92.5103286 101.611558,92.5103286 L99.6996,92.5103286 L99.6996,92.5103286 Z M100.711137,93.3353588 L101.080884,93.3353588 C101.331853,93.3353588 101.544505,93.3640057 101.663284,93.4079309 C101.906589,93.4976911 102.033032,93.7173172 102.033032,94.0343427 C102.033032,94.2463296 101.958316,94.4315795 101.833789,94.5499866 C101.692021,94.6741231 101.500442,94.7180483 101.057895,94.7180483 L100.711137,94.7180483 L100.711137,93.3353588 L100.711137,93.3353588 Z" id="Fill-86" fill="#FFFFFF" sketch:type="MSShapeGroup"></path>
                <path d="M104.695979,92.5103286 L104.695979,97.6228421 L107.684611,97.6228421 L107.684611,96.7405181 L105.743916,96.7405181 L105.743916,95.3711972 L107.198,95.3711972 L107.198,94.5327985 L105.728589,94.5327985 L105.728589,93.3487274 L107.485368,93.3487274 L107.617558,92.5103286 L104.695979,92.5103286" id="Fill-87" fill="#FFFFFF" sketch:type="MSShapeGroup"></path>
                <path d="M109.113789,96.677495 C108.828337,96.677495 108.596526,96.9085798 108.596526,97.1931388 C108.596526,97.4815174 108.828337,97.7183317 109.119537,97.7183317 C109.404989,97.7183317 109.642547,97.4815174 109.642547,97.1931388 C109.642547,96.9085798 109.404989,96.677495 109.113789,96.677495" id="Fill-88" fill="#FFFFFF" sketch:type="MSShapeGroup"></path>
                <path d="M112.759537,92.5103286 L112.759537,97.6228421 L113.769158,97.6228421 L113.769158,95.4896043 C113.836211,95.4972435 113.882189,95.5125218 113.932,95.5335295 C114.115916,95.6156506 114.271095,95.8658333 114.780695,96.7863531 C114.979937,97.145394 115.062316,97.2867186 115.261558,97.6228421 L116.478084,97.6228421 C116.478084,97.6228421 115.539347,96.0052482 115.244316,95.6366583 C115.179179,95.5488078 115.135116,95.5048826 115.031663,95.4246714 C115.665789,95.409393 116.175389,94.7772518 116.175389,94.0114252 C116.175389,93.1138229 115.577663,92.5103286 114.669579,92.5103286 L112.759537,92.5103286 L112.759537,92.5103286 Z M113.769158,93.3353588 L114.138905,93.3353588 C114.389874,93.3353588 114.602526,93.3640057 114.721305,93.4079309 C114.964611,93.4976911 115.089137,93.7173172 115.089137,94.0343427 C115.089137,94.2463296 115.016337,94.4315795 114.891811,94.5499866 C114.750042,94.6741231 114.558463,94.7180483 114.115916,94.7180483 L113.769158,94.7180483 L113.769158,93.3353588 L113.769158,93.3353588 Z" id="Fill-89" fill="#FFFFFF" sketch:type="MSShapeGroup"></path>
                <path d="M117.828716,92.5103286 L117.828716,97.6228421 L120.817347,97.6228421 L120.817347,96.7405181 L118.876653,96.7405181 L118.876653,95.3711972 L120.330737,95.3711972 L120.330737,94.5327985 L118.861326,94.5327985 L118.861326,93.3487274 L120.618105,93.3487274 L120.750295,92.5103286 L117.828716,92.5103286" id="Fill-90" fill="#FFFFFF" sketch:type="MSShapeGroup"></path>
                <path d="M125.560842,92.8044366 C125.281137,92.561893 124.771537,92.3995607 124.261937,92.3995607 C123.436232,92.3995607 122.696737,92.8407227 122.298253,93.5836318 C122.062611,94.0267036 121.951495,94.5327985 121.951495,95.1725788 C121.951495,95.9231271 122.1584,96.5418997 122.572211,97.0040694 C122.991768,97.4834272 123.539684,97.7126023 124.246611,97.7126023 C124.830926,97.7126023 125.265811,97.5655483 125.671958,97.2332445 L125.198758,96.5858249 C124.896063,96.8283685 124.624021,96.916219 124.321326,96.916219 C123.878779,96.916219 123.539684,96.7176006 123.332779,96.3432814 C123.1776,96.0644517 123.118211,95.6729443 123.118211,94.9758702 C123.118211,94.3800151 123.206337,93.9522217 123.405579,93.6581137 C123.589495,93.3869232 123.930505,93.2169517 124.277263,93.2169517 C124.564632,93.2169517 124.836674,93.3124413 125.095305,93.5034205 L125.560842,92.8044366" id="Fill-91" fill="#FFFFFF" sketch:type="MSShapeGroup"></path>
                <path d="M128.712316,92.4453957 C128.327242,92.4453957 127.951747,92.5332461 127.649053,92.6955785 C126.911474,93.1004544 126.49,93.9827783 126.49,95.0866382 C126.49,95.8371865 126.689242,96.484606 127.080063,96.9830617 C127.4728,97.4910664 127.974737,97.7049631 128.748716,97.7049631 C129.175937,97.7049631 129.465221,97.6381204 129.773663,97.4700587 C130.518905,97.0651828 130.917389,96.1962274 130.917389,95.0427129 C130.917389,93.4384876 130.076358,92.4453957 128.712316,92.4453957 M128.696989,93.2398692 C129.242989,93.2398692 129.516947,93.6294668 129.597411,93.8872887 C129.685537,94.1737575 129.7296,94.5499866 129.7296,95.0713598 C129.7296,96.373838 129.426905,96.9181288 128.712316,96.9181288 C128.469011,96.9181288 128.262105,96.8589252 128.099263,96.7424279 C127.788905,96.520892 127.641389,95.9689621 127.641389,95.0866382 C127.641389,94.4678655 127.723768,94.0190644 127.900021,93.6886704 C128.047537,93.4155701 128.350232,93.2398692 128.696989,93.2398692" id="Fill-92" fill="#FFFFFF" sketch:type="MSShapeGroup"></path>
                <path d="M131.526611,92.5103286 L133.268063,97.6591281 L134.204884,97.6591281 L135.9904,92.5103286 L134.906063,92.5103286 L134.036295,95.0408032 C133.940505,95.3196328 133.8064,95.7474262 133.741263,96.0625419 C133.658884,95.6882227 133.570758,95.4017539 133.503705,95.1725788 L132.655011,92.5103286 L131.526611,92.5103286" id="Fill-93" fill="#FFFFFF" sketch:type="MSShapeGroup"></path>
                <path d="M137.157116,92.5103286 L137.157116,97.6228421 L140.145747,97.6228421 L140.145747,96.7405181 L138.205053,96.7405181 L138.205053,95.3711972 L139.659137,95.3711972 L139.659137,94.5327985 L138.189726,94.5327985 L138.189726,93.3487274 L139.946505,93.3487274 L140.078695,92.5103286 L137.157116,92.5103286" id="Fill-94" fill="#FFFFFF" sketch:type="MSShapeGroup"></path>
                <path d="M141.701368,92.5103286 L141.701368,97.6228421 L142.712905,97.6228421 L142.712905,95.4896043 C142.779958,95.4972435 142.824021,95.5125218 142.875747,95.5335295 C143.059663,95.6156506 143.214842,95.8658333 143.724442,96.7863531 C143.923684,97.145394 144.004147,97.2867186 144.203389,97.6228421 L145.421832,97.6228421 C145.421832,97.6228421 144.485011,96.0052482 144.188063,95.6366583 C144.122926,95.5488078 144.078863,95.5048826 143.975411,95.4246714 C144.609537,95.409393 145.119137,94.7772518 145.119137,94.0114252 C145.119137,93.1138229 144.521411,92.5103286 143.613326,92.5103286 L141.701368,92.5103286 L141.701368,92.5103286 Z M142.712905,93.3353588 L143.082653,93.3353588 C143.333621,93.3353588 143.546274,93.3640057 143.665053,93.4079309 C143.908358,93.4976911 144.0348,93.7173172 144.0348,94.0343427 C144.0348,94.2463296 143.960084,94.4315795 143.835558,94.5499866 C143.693789,94.6741231 143.502211,94.7180483 143.059663,94.7180483 L142.712905,94.7180483 L142.712905,93.3353588 L142.712905,93.3353588 Z" id="Fill-95" fill="#FFFFFF" sketch:type="MSShapeGroup"></path>
                <path d="M145.782,92.5103286 L147.375937,95.520161 L147.375937,97.6228421 L148.454526,97.6228421 L148.454526,95.520161 L150.092526,92.5103286 L148.874084,92.5103286 L148.209305,93.921665 C148.100105,94.1661184 147.996653,94.4143913 147.937263,94.5633551 C147.877874,94.3704661 147.810821,94.1871261 147.678632,93.9082964 L147.021516,92.5103286 L145.782,92.5103286" id="Fill-96" fill="#FFFFFF" sketch:type="MSShapeGroup"></path>
                <path d="M150.393305,96.677495 C150.107853,96.677495 149.876042,96.9085798 149.876042,97.1931388 C149.876042,97.4815174 150.107853,97.7183317 150.399053,97.7183317 C150.684505,97.7183317 150.922063,97.4815174 150.922063,97.1931388 C150.922063,96.9085798 150.684505,96.677495 150.393305,96.677495" id="Fill-97" fill="#FFFFFF" sketch:type="MSShapeGroup"></path>
                <path d="M99.7417474,47.5213565 C101.316526,47.5213565 102.602021,48.8333836 102.602021,50.4452482 C102.602021,52.0590225 101.326105,53.36723 99.7513263,53.36723 L92.0824211,53.3595909 L92.0900842,64.3542639 L98.6133474,57.6470741 C99.7264211,56.5050184 101.659453,56.3293176 102.772526,57.4713732 C102.826168,57.5248474 102.875979,57.5802314 102.921958,57.6356154 L102.929621,50.2504494 C103.017747,48.7187961 104.253432,47.5213565 105.770737,47.5213565 L116.267347,47.5213565 C117.842126,47.5213565 119.127621,48.8333836 119.127621,50.4452482 C119.127621,52.0590225 117.851705,53.36723 116.276926,53.36723 L108.608021,53.3595909 L108.6176,64.3542639 L115.138947,57.6470741 C116.252021,56.5050184 118.186968,56.3293176 119.300042,57.4713732 C120.413116,58.6115191 120.275179,60.4277314 119.162105,61.5697871 L107.630968,73.3398357 C107.117537,73.85166 106.527474,74.1686854 105.763074,74.1686854 C104.190211,74.1686854 102.912379,72.8509289 102.912379,71.2371546 L102.920042,61.2374832 C102.833832,61.3520708 102.739958,61.4628387 102.636505,61.5697871 L91.1034526,73.3398357 C90.5919368,73.85166 89.9999579,74.1686854 89.2374737,74.1686854 C87.6626947,74.1686854 86.3867789,72.8509289 86.3867789,71.2371546 C86.3867789,71.2371546 86.3982737,50.2542689 86.4040211,50.2504494 C86.4921474,48.7187961 87.7259158,47.5213565 89.2451368,47.5213565 L99.7417474,47.5213565" id="Fill-98" fill="#FFFFFF" sketch:type="MSShapeGroup"></path>
                <path d="M79.3692421,58.6821814 L79.3692421,53.3786888 L72.5471158,53.3729594 L69.2423789,56.7552012 L69.2423789,64.1098105 L74.984,58.2391097 C76.0970737,57.097054 77.8998316,57.097054 79.0129053,58.2391097 C79.1470105,58.3766147 79.2657895,58.5255785 79.3692421,58.6821814 M71.3727368,47.5232663 L82.2371789,47.5232663 C83.8119579,47.5232663 85.0648842,48.8181053 85.0648842,50.4318796 L85.0725474,71.2447938 C85.0725474,72.8585681 83.7928,74.1763246 82.2180211,74.1763246 C80.6451579,74.1763246 79.3692421,72.868117 79.3692421,71.2543427 L79.3692421,61.9250084 C79.2638737,62.0835211 79.1431789,62.2363045 79.0052421,62.3776291 L68.2557474,73.3130986 C67.7442316,73.8249229 67.1522526,74.1419484 66.3897684,74.1419484 C64.8149895,74.1419484 63.5390737,72.822282 63.5390737,71.2085077 L63.5390737,55.5119266 C63.5390737,54.83777 63.7747158,54.2304561 64.1463789,53.7358199 L69.6542737,48.0923843 C70.1274737,47.7314336 70.7386105,47.5232663 71.3727368,47.5232663" id="Fill-99" fill="#FFFFFF" sketch:type="MSShapeGroup"></path>
                <path d="M27.5682105,112.398903 L23.6312632,112.398903 L23.6312632,113.185738 L25.0700211,113.185738 L25.0700211,118.069076 L26.0145053,118.069076 L26.0145053,113.185738 L27.4456,113.185738 L27.5682105,112.398903" id="Fill-100" fill="#000000" sketch:type="MSShapeGroup"></path>
                <path d="M31.5894526,116.241405 L31.5894526,116.052336 C31.5894526,115.085981 31.4093684,114.577976 31.0472842,114.249492 C30.6928632,113.930557 30.3154526,113.823608 29.9054737,113.823608 C29.3786316,113.823608 28.9667368,113.99549 28.6295579,114.379358 C28.2693895,114.789963 28.1122947,115.273141 28.1122947,116.002681 C28.1122947,117.329987 28.8517895,118.174115 30.0280842,118.174115 C30.5874947,118.174115 31.0875158,117.994594 31.5243158,117.626004 L31.1698947,117.075984 C30.8576211,117.347175 30.5204421,117.48659 30.1353684,117.48659 C29.3211579,117.48659 29.1065895,116.879276 29.1065895,116.306338 L29.1065895,116.241405 L31.5894526,116.241405 L31.5894526,116.241405 Z M30.6526316,115.576797 L29.1161684,115.576797 C29.1161684,114.904551 29.3958737,114.503494 29.9054737,114.503494 C30.3556842,114.503494 30.6526316,114.904551 30.6526316,115.576797 L30.6526316,115.576797 Z" id="Fill-101" fill="#000000" sketch:type="MSShapeGroup"></path>
                <path d="M37.5897053,112.398903 L35.7409684,115.045875 L37.6567579,118.069076 L38.8886105,118.069076 L36.7850737,115.028687 L38.7583368,112.398903 L37.5897053,112.398903 L37.5897053,112.398903 Z M34.7715789,118.069076 L35.7333053,118.069076 L35.7333053,112.398903 L34.7715789,112.398903 L34.7715789,118.069076 Z" id="Fill-102" fill="#000000" sketch:type="MSShapeGroup"></path>
                <path d="M42.9922316,117.66802 C42.6722947,117.446484 42.6224842,117.266963 42.6301474,116.709304 L42.6473895,115.521413 C42.6550526,114.90646 42.6550526,114.684925 42.5803368,114.505404 C42.4002526,114.052783 41.9653684,113.817879 41.3159158,113.817879 C40.6894526,113.817879 40.1721895,113.98785 39.5476421,114.381268 L39.9499579,115.030597 C39.9499579,115.030597 40.5917474,114.555059 41.1913895,114.555059 C41.6856632,114.555059 41.7680421,114.809061 41.7680421,115.282689 L41.7680421,115.506135 L41.4883368,115.506135 C40.1568632,115.506135 39.4326947,115.987403 39.4326947,116.948028 C39.4326947,117.66802 39.8599158,118.193213 40.8139789,118.193213 C41.2584421,118.193213 41.6186105,118.061437 41.9557895,117.685208 C42.0554105,117.946849 42.2680632,118.143558 42.5228632,118.240957 L42.9922316,117.66802 L42.9922316,117.66802 Z M41.7508,116.119178 L41.7335579,117.102721 C41.5534737,117.362453 41.2737684,117.534334 40.9864,117.534334 C40.6243158,117.534334 40.4116632,117.291791 40.4116632,116.898374 C40.4116632,116.373181 40.6817895,116.111539 41.5860421,116.111539 C41.6530947,116.111539 41.7508,116.119178 41.7508,116.119178 L41.7508,116.119178 Z" id="Fill-103" fill="#000000" sketch:type="MSShapeGroup"></path>
                <path d="M47.5479789,115.905282 C47.5479789,114.463389 46.8161474,113.833157 45.9789474,113.833157 C45.5421474,113.833157 45.1302526,114.005039 44.8677895,114.323974 C44.8601263,114.069971 44.8428842,113.955384 44.8026526,113.815969 L43.9712,113.963023 C44.0286737,114.26668 44.0535789,114.478667 44.0535789,114.996221 L44.0535789,119.829904 L44.9252632,119.610278 L44.9252632,118.225679 C44.9252632,117.996504 44.9080211,117.815074 44.9080211,117.815074 C45.1953895,118.03661 45.5421474,118.151197 45.8946526,118.151197 C46.956,118.151197 47.5479789,117.282242 47.5479789,115.905282 M45.8046105,114.577976 C46.3965895,114.577976 46.5766737,115.078342 46.5766737,116.004591 C46.5766737,116.988134 46.3084632,117.438845 45.6973263,117.438845 C45.4272,117.438845 45.1398316,117.282242 44.9252632,117.068345 L44.9252632,115.00386 C45.1724,114.72503 45.4750947,114.577976 45.8046105,114.577976" id="Fill-104" fill="#000000" sketch:type="MSShapeGroup"></path>
                <path d="M50.1726105,113.823608 C49.0710316,113.823608 48.3545263,114.675376 48.3545263,116.002681 C48.3545263,117.329987 49.0633684,118.174115 50.1879368,118.174115 C51.3144211,118.174115 52.0309263,117.347175 52.0309263,116.01223 C52.0309263,114.700203 51.3565684,113.823608 50.1726105,113.823608 M50.1802737,114.503494 C50.7071158,114.503494 51.0347158,114.854896 51.0347158,116.027508 C51.0347158,117.068345 50.7396842,117.503778 50.2051789,117.503778 C49.6630105,117.503778 49.3584,117.150466 49.3584,115.945387 C49.3584,114.937017 49.6055368,114.503494 50.1802737,114.503494" id="Fill-105" fill="#000000" sketch:type="MSShapeGroup"></path>
                <path d="M55.3624842,113.873263 C55.2552,113.823608 55.1728211,113.80833 55.0425474,113.80833 C54.6383158,113.80833 54.3107158,114.020317 53.9812,114.471028 C53.9812,114.241853 53.9237263,114.005039 53.8260211,113.815969 L52.9945684,114.029866 C53.0846105,114.281958 53.1420842,114.619992 53.1420842,115.143275 L53.1420842,118.069076 L54.0463368,118.069076 L54.0463368,115.265501 C54.1287158,114.929378 54.4505684,114.652458 54.8279789,114.652458 C54.9276,114.652458 54.9927368,114.675376 55.0827789,114.709752 L55.3624842,113.873263" id="Fill-106" fill="#000000" sketch:type="MSShapeGroup"></path>
                <path d="M59.2917684,116.241405 L59.2917684,116.052336 C59.2917684,115.085981 59.1116842,114.577976 58.7496,114.249492 C58.3951789,113.930557 58.0177684,113.823608 57.6058737,113.823608 C57.0809474,113.823608 56.6690526,113.99549 56.3318737,114.379358 C55.9717053,114.789963 55.8146105,115.273141 55.8146105,116.002681 C55.8146105,117.329987 56.5541053,118.174115 57.7304,118.174115 C58.2898105,118.174115 58.7898316,117.994594 59.2266316,117.626004 L58.8722105,117.075984 C58.5599368,117.347175 58.2227579,117.48659 57.8376842,117.48659 C57.0234737,117.48659 56.8089053,116.879276 56.8089053,116.306338 L56.8089053,116.241405 L59.2917684,116.241405 L59.2917684,116.241405 Z M58.3549474,115.576797 L56.8184842,115.576797 C56.8184842,114.904551 57.0962737,114.503494 57.6058737,114.503494 C58.058,114.503494 58.3549474,114.904551 58.3549474,115.576797 L58.3549474,115.576797 Z" id="Fill-107" fill="#000000" sketch:type="MSShapeGroup"></path>
                <path d="M60.8550526,113.307964 C61.1922316,113.307964 61.4623579,113.036774 61.4623579,112.7102 C61.4623579,112.366437 61.1922316,112.102886 60.8703789,112.102886 C60.5332,112.102886 60.2707368,112.374076 60.2707368,112.7102 C60.2707368,113.036774 60.5255368,113.307964 60.8550526,113.307964 M61.3148421,118.069076 L61.3148421,113.823608 L60.4029263,113.98785 L60.4029263,118.069076 L61.3148421,118.069076" id="Fill-108" fill="#000000" sketch:type="MSShapeGroup"></path>
                <path d="M66.0008632,118.069076 L66.0008632,115.143275 C66.0008632,114.72503 65.9682947,114.537871 65.8610105,114.333523 C65.7211579,114.062332 65.3437474,113.823608 64.8494737,113.823608 C64.4069263,113.823608 63.9873684,113.997399 63.5754737,114.365989 C63.5754737,114.365989 63.5927158,114.159732 63.5927158,113.89809 L63.5927158,113.013856 C63.5927158,112.61089 63.5678105,112.274767 63.5103368,112.037953 L62.5984211,112.234661 C62.6463158,112.448558 62.6788842,112.767493 62.6788842,113.136083 L62.6788842,118.069076 L63.5927158,118.069076 L63.5927158,115.09553 C63.8877474,114.791873 64.2747368,114.585615 64.5946737,114.585615 C64.9395158,114.585615 65.1215158,114.734579 65.1215158,115.250223 L65.1215158,118.069076 L66.0008632,118.069076" id="Fill-109" fill="#000000" sketch:type="MSShapeGroup"></path>
                <path d="M70.6217474,117.66802 C70.2998947,117.446484 70.252,117.266963 70.2596632,116.709304 L70.2769053,115.521413 C70.2845684,114.90646 70.2845684,114.684925 70.2098526,114.505404 C70.0297684,114.052783 69.5929684,113.817879 68.9454316,113.817879 C68.3189684,113.817879 67.8017053,113.98785 67.1771579,114.381268 L67.5794737,115.030597 C67.5794737,115.030597 68.2212632,114.555059 68.8209053,114.555059 C69.3151789,114.555059 69.3975579,114.809061 69.3975579,115.282689 L69.3975579,115.506135 L69.1178526,115.506135 C67.7863789,115.506135 67.0622105,115.987403 67.0622105,116.948028 C67.0622105,117.66802 67.4894316,118.193213 68.4434947,118.193213 C68.8860421,118.193213 69.2481263,118.061437 69.5853053,117.685208 C69.6849263,117.946849 69.8975789,118.143558 70.1523789,118.240957 L70.6217474,117.66802 L70.6217474,117.66802 Z M69.3803158,116.119178 L69.3630737,117.102721 C69.1829895,117.362453 68.9032842,117.534334 68.6159158,117.534334 C68.2538316,117.534334 68.0411789,117.291791 68.0411789,116.898374 C68.0411789,116.373181 68.3113053,116.111539 69.2155579,116.111539 C69.2826105,116.111539 69.3803158,116.119178 69.3803158,116.119178 L69.3803158,116.119178 Z" id="Fill-110" fill="#000000" sketch:type="MSShapeGroup"></path>
                <path d="M74.8556421,118.069076 L74.8556421,114.971393 C74.8556421,114.209386 74.4111789,113.823608 73.7713053,113.823608 C73.3268421,113.823608 72.9398526,114.020317 72.4953895,114.398456 C72.4953895,114.17692 72.4474947,113.997399 72.3478737,113.80833 L71.526,114.037505 C71.6409474,114.333523 71.6830947,114.585615 71.6830947,115.021048 L71.6830947,118.069076 L72.5701053,118.069076 L72.5701053,115.061154 C72.8421474,114.791873 73.2195579,114.595164 73.4820211,114.595164 C73.8287789,114.595164 73.9590526,114.749857 73.9590526,115.315156 L73.9590526,118.069076 L74.8556421,118.069076" id="Fill-111" fill="#000000" sketch:type="MSShapeGroup"></path>
                <path d="M79.4937684,117.66802 C79.1738316,117.446484 79.1240211,117.266963 79.1316842,116.709304 L79.1489263,115.521413 C79.1565895,114.90646 79.1565895,114.684925 79.0818737,114.505404 C78.9017895,114.052783 78.4669053,113.817879 77.8174526,113.817879 C77.1929053,113.817879 76.6737263,113.98785 76.0491789,114.381268 L76.4514947,115.030597 C76.4514947,115.030597 77.0932842,114.555059 77.6929263,114.555059 C78.1872,114.555059 78.2695789,114.809061 78.2695789,115.282689 L78.2695789,115.506135 L77.9898737,115.506135 C76.6584,115.506135 75.9342316,115.987403 75.9342316,116.948028 C75.9342316,117.66802 76.3614526,118.193213 77.3155158,118.193213 C77.7599789,118.193213 78.1201474,118.061437 78.4573263,117.685208 C78.5569474,117.946849 78.7696,118.143558 79.0244,118.240957 L79.4937684,117.66802 L79.4937684,117.66802 Z M78.2523368,116.119178 L78.2350947,117.102721 C78.0550105,117.362453 77.7753053,117.534334 77.4879368,117.534334 C77.1258526,117.534334 76.9132,117.291791 76.9132,116.898374 C76.9132,116.373181 77.1833263,116.111539 78.0875789,116.111539 C78.1546316,116.111539 78.2523368,116.119178 78.2523368,116.119178 L78.2523368,116.119178 Z" id="Fill-112" fill="#000000" sketch:type="MSShapeGroup"></path>
                <path d="M86.6377474,118.069076 L84.8215789,112.389354 L83.7276632,112.389354 L81.8616842,118.069076 L82.8406526,118.069076 L83.3004421,116.577529 L85.1415158,116.577529 L85.6013053,118.069076 L86.6377474,118.069076 L86.6377474,118.069076 Z M84.9288632,115.790694 L83.5303368,115.790694 C83.6625263,115.414465 84.2449263,113.372897 84.2449263,113.372897 L84.2545053,113.372897 C84.2947368,113.594433 84.8713895,115.668467 84.9288632,115.790694 L84.9288632,115.790694 Z M82.9881684,111.938644 L85.4135579,111.938644 L85.4135579,111.365706 L82.9881684,111.365706 L82.9881684,111.938644 Z" id="Fill-113" fill="#000000" sketch:type="MSShapeGroup"></path>
                <path d="M92.4521684,113.922918 L91.5153474,113.922918 L91.0881263,115.857537 C90.9808421,116.340714 90.8812211,116.970946 90.8812211,116.970946 L90.8582316,116.970946 C90.8582316,116.970946 90.7662737,116.462941 90.5938526,115.790694 L90.1264,113.922918 L89.2374737,113.922918 L88.7029684,115.840349 C88.5477895,116.413286 88.4654105,116.955667 88.4654105,116.955667 L88.4405053,116.955667 C88.4405053,116.955667 88.3428,116.38082 88.2278526,115.865176 L87.7738105,113.857985 L86.8791368,113.980211 L88.0132842,118.086264 L88.8600632,118.086264 L89.362,116.216578 C89.5669895,115.456481 89.6321263,115.045875 89.6321263,115.045875 L89.6493684,115.045875 C89.6493684,115.045875 89.7892211,115.685656 89.9194947,116.176472 L90.4290947,118.086264 L91.2758737,118.086264 L92.4521684,113.922918" id="Fill-114" fill="#000000" sketch:type="MSShapeGroup"></path>
                <path d="M96.6036842,118.069076 L96.6036842,115.143275 C96.6036842,114.72503 96.5711158,114.537871 96.4638316,114.333523 C96.3239789,114.062332 95.9465684,113.823608 95.4522947,113.823608 C95.0097474,113.823608 94.5901895,113.997399 94.1782947,114.365989 C94.1782947,114.365989 94.1955368,114.159732 94.1955368,113.89809 L94.1955368,113.013856 C94.1955368,112.61089 94.1706316,112.274767 94.1131579,112.037953 L93.2012421,112.234661 C93.2491368,112.448558 93.2817053,112.767493 93.2817053,113.136083 L93.2817053,118.069076 L94.1955368,118.069076 L94.1955368,115.09553 C94.4905684,114.791873 94.8775579,114.585615 95.1974947,114.585615 C95.5442526,114.585615 95.7243368,114.734579 95.7243368,115.250223 L95.7243368,118.069076 L96.6036842,118.069076" id="Fill-115" fill="#000000" sketch:type="MSShapeGroup"></path>
                <path d="M98.3892,113.307964 C98.7263789,113.307964 98.9965053,113.036774 98.9965053,112.7102 C98.9965053,112.366437 98.7263789,112.102886 98.4045263,112.102886 C98.0673474,112.102886 97.8048842,112.374076 97.8048842,112.7102 C97.8048842,113.036774 98.0596842,113.307964 98.3892,113.307964 M98.8489895,118.069076 L98.8489895,113.823608 L97.9370737,113.98785 L97.9370737,118.069076 L98.8489895,118.069076" id="Fill-116" fill="#000000" sketch:type="MSShapeGroup"></path>
                <path d="M103.4124,118.069076 L103.4124,114.971393 C103.4124,114.209386 102.967937,113.823608 102.328063,113.823608 C101.8836,113.823608 101.496611,114.020317 101.054063,114.398456 C101.054063,114.17692 101.004253,113.997399 100.904632,113.80833 L100.082758,114.037505 C100.197705,114.333523 100.239853,114.585615 100.239853,115.021048 L100.239853,118.069076 L101.126863,118.069076 L101.126863,115.061154 C101.398905,114.791873 101.776316,114.595164 102.038779,114.595164 C102.385537,114.595164 102.515811,114.749857 102.515811,115.315156 L102.515811,118.069076 L103.4124,118.069076" id="Fill-117" fill="#000000" sketch:type="MSShapeGroup"></path>
                <path d="M108.048611,117.66802 C107.728674,117.446484 107.678863,117.266963 107.686526,116.709304 L107.703768,115.521413 C107.711432,114.90646 107.711432,114.684925 107.636716,114.505404 C107.456632,114.052783 107.021747,113.817879 106.372295,113.817879 C105.747747,113.817879 105.228568,113.98785 104.604021,114.381268 L105.006337,115.030597 C105.006337,115.030597 105.648126,114.555059 106.247768,114.555059 C106.742042,114.555059 106.824421,114.809061 106.824421,115.282689 L106.824421,115.506135 L106.544716,115.506135 C105.213242,115.506135 104.489074,115.987403 104.489074,116.948028 C104.489074,117.66802 104.916295,118.193213 105.870358,118.193213 C106.314821,118.193213 106.674989,118.061437 107.012168,117.685208 C107.111789,117.946849 107.324442,118.143558 107.579242,118.240957 L108.048611,117.66802 L108.048611,117.66802 Z M106.807179,116.119178 L106.789937,117.102721 C106.609853,117.362453 106.330147,117.534334 106.042779,117.534334 C105.680695,117.534334 105.468042,117.291791 105.468042,116.898374 C105.468042,116.373181 105.738168,116.111539 106.642421,116.111539 C106.709474,116.111539 106.807179,116.119178 106.807179,116.119178 L106.807179,116.119178 Z" id="Fill-118" fill="#000000" sketch:type="MSShapeGroup"></path>
                <path d="M114.995263,118.069076 L114.995263,112.398903 L114.0412,112.398903 L114.0412,114.675376 L112.102421,114.675376 L112.102421,112.398903 L111.1656,112.398903 L111.1656,118.069076 L112.102421,118.069076 L112.102421,115.446932 L114.0412,115.446932 L114.0412,118.069076 L114.995263,118.069076" id="Fill-119" fill="#000000" sketch:type="MSShapeGroup"></path>
                <path d="M119.863284,117.774968 C119.863284,117.774968 119.608484,117.57062 119.608484,116.946118 L119.608484,113.825518 L118.7368,113.98785 L118.7368,116.955667 C118.596947,117.249775 118.2272,117.496138 117.922589,117.496138 C117.388084,117.496138 117.315284,117.119909 117.315284,116.602356 L117.315284,113.825518 L116.426358,113.98785 L116.426358,116.799064 C116.426358,117.316618 116.493411,117.585899 116.658168,117.780698 C116.863158,118.02897 117.225242,118.193213 117.692695,118.193213 C118.169726,118.193213 118.572042,118.02897 118.876653,117.685208 C118.951368,117.922022 119.056737,118.069076 119.238737,118.200852 L119.863284,117.774968" id="Fill-120" fill="#000000" sketch:type="MSShapeGroup"></path>
                <path d="M124.219789,118.069076 L124.219789,114.971393 C124.219789,114.209386 123.775326,113.823608 123.135453,113.823608 C122.690989,113.823608 122.304,114.020317 121.861453,114.398456 C121.861453,114.17692 121.811642,113.997399 121.712021,113.80833 L120.890147,114.037505 C121.005095,114.333523 121.047242,114.585615 121.047242,115.021048 L121.047242,118.069076 L121.934253,118.069076 L121.934253,115.061154 C122.206295,114.791873 122.583705,114.595164 122.846168,114.595164 C123.192926,114.595164 123.3232,114.749857 123.3232,115.315156 L123.3232,118.069076 L124.219789,118.069076" id="Fill-121" fill="#000000" sketch:type="MSShapeGroup"></path>
                <path d="M129.4748,114.314425 L129.055242,113.749126 C128.825347,113.938196 128.570547,114.035595 128.298505,114.035595 C127.961326,114.035595 127.624147,113.823608 127.032168,113.823608 C126.037874,113.823608 125.373095,114.379358 125.373095,115.225396 C125.373095,115.815521 125.693032,116.216578 126.317579,116.396098 C125.873116,116.535513 125.528274,116.699755 125.528274,117.11036 C125.528274,117.519056 125.775411,117.740592 126.892316,117.740592 C127.666295,117.740592 128.043705,117.862819 128.043705,118.31353 C128.043705,118.699308 127.698863,118.960949 127.057074,118.960949 C126.474674,118.960949 126.145158,118.748962 126.145158,118.363184 C126.145158,118.231408 126.210295,118.067166 126.210295,118.067166 L125.355853,118.067166 C125.355853,118.067166 125.273474,118.31353 125.273474,118.510238 C125.273474,119.289433 126.055116,119.640835 127.131789,119.640835 C128.241032,119.640835 128.980526,119.167207 128.980526,118.281063 C128.980526,117.436935 128.265937,117.100812 127.599242,117.100812 C126.622189,117.100812 126.564716,117.085533 126.564716,116.92893 C126.564716,116.797155 126.827179,116.642461 127.124126,116.535513 C128.101179,116.535513 128.700821,115.987403 128.700821,115.265501 C128.700821,114.81479 128.430695,114.535961 128.430695,114.535961 C128.430695,114.535961 128.553305,114.585615 128.750632,114.585615 C129.030337,114.585615 129.244905,114.511133 129.4748,114.314425 M127.024505,114.503494 C127.501537,114.503494 127.739095,114.749857 127.739095,115.215847 C127.739095,115.676107 127.493874,115.92056 127.024505,115.92056 C126.580042,115.92056 126.309916,115.700934 126.309916,115.225396 C126.309916,114.757497 126.564716,114.503494 127.024505,114.503494" id="Fill-122" fill="#000000" sketch:type="MSShapeGroup"></path>
                <path d="M133.396421,117.66802 C133.076484,117.446484 133.026674,117.266963 133.034337,116.709304 L133.051579,115.521413 C133.059242,114.90646 133.059242,114.684925 132.984526,114.505404 C132.804442,114.052783 132.369558,113.817879 131.720105,113.817879 C131.095558,113.817879 130.576379,113.98785 129.951832,114.381268 L130.354147,115.030597 C130.354147,115.030597 130.995937,114.555059 131.595579,114.555059 C132.089853,114.555059 132.172232,114.809061 132.172232,115.282689 L132.172232,115.506135 L131.892526,115.506135 C130.561053,115.506135 129.836884,115.987403 129.836884,116.948028 C129.836884,117.66802 130.264105,118.193213 131.218168,118.193213 C131.662632,118.193213 132.0228,118.061437 132.359979,117.685208 C132.4596,117.946849 132.672253,118.143558 132.927053,118.240957 L133.396421,117.66802 L133.396421,117.66802 Z M132.154989,116.119178 L132.137747,117.102721 C131.957663,117.362453 131.677958,117.534334 131.390589,117.534334 C131.028505,117.534334 130.815853,117.291791 130.815853,116.898374 C130.815853,116.373181 131.085979,116.111539 131.990232,116.111539 C132.057284,116.111539 132.154989,116.119178 132.154989,116.119178 L132.154989,116.119178 Z" id="Fill-123" fill="#000000" sketch:type="MSShapeGroup"></path>
                <path d="M142.571137,112.398903 L141.584505,112.398903 L141.042337,114.971393 C140.902484,115.618813 140.712821,116.816253 140.712821,116.816253 L140.687916,116.816253 C140.687916,116.816253 140.548063,115.890003 140.410126,115.217757 L139.818147,112.398903 L138.7568,112.398903 L138.164821,115.103169 C138.017305,115.790694 137.852547,116.856358 137.852547,116.856358 L137.827642,116.856358 C137.827642,116.856358 137.720358,115.954936 137.523032,115.036326 L136.955958,112.398903 L135.946337,112.398903 L137.302716,118.101543 L138.411958,118.101543 L138.961789,115.446932 C139.101642,114.759406 139.249158,113.833157 139.249158,113.833157 L139.274063,113.833157 C139.274063,113.833157 139.366021,114.619992 139.553768,115.471759 L140.138084,118.101543 L141.222421,118.101543 L142.571137,112.398903" id="Fill-124" fill="#000000" sketch:type="MSShapeGroup"></path>
                <path d="M146.782042,118.069076 L146.782042,115.143275 C146.782042,114.72503 146.749474,114.537871 146.642189,114.333523 C146.502337,114.062332 146.124926,113.823608 145.630653,113.823608 C145.188105,113.823608 144.768547,113.997399 144.356653,114.365989 C144.356653,114.365989 144.373895,114.159732 144.373895,113.89809 L144.373895,113.013856 C144.373895,112.61089 144.348989,112.274767 144.291516,112.037953 L143.3796,112.234661 C143.427495,112.448558 143.461979,112.767493 143.461979,113.136083 L143.461979,118.069076 L144.373895,118.069076 L144.373895,115.09553 C144.668926,114.791873 145.055916,114.585615 145.375853,114.585615 C145.722611,114.585615 145.902695,114.734579 145.902695,115.250223 L145.902695,118.069076 L146.782042,118.069076" id="Fill-125" fill="#000000" sketch:type="MSShapeGroup"></path>
                <path d="M151.402926,117.66802 C151.082989,117.446484 151.033179,117.266963 151.040842,116.709304 L151.058084,115.521413 C151.065747,114.90646 151.065747,114.684925 150.991032,114.505404 C150.810947,114.052783 150.376063,113.817879 149.726611,113.817879 C149.102063,113.817879 148.582884,113.98785 147.958337,114.381268 L148.360653,115.030597 C148.360653,115.030597 149.002442,114.555059 149.602084,114.555059 C150.096358,114.555059 150.178737,114.809061 150.178737,115.282689 L150.178737,115.506135 L149.899032,115.506135 C148.567558,115.506135 147.843389,115.987403 147.843389,116.948028 C147.843389,117.66802 148.270611,118.193213 149.224674,118.193213 C149.669137,118.193213 150.029305,118.061437 150.366484,117.685208 C150.466105,117.946849 150.678758,118.143558 150.933558,118.240957 L151.402926,117.66802 L151.402926,117.66802 Z M150.161495,116.119178 L150.144253,117.102721 C149.964168,117.362453 149.684463,117.534334 149.397095,117.534334 C149.035011,117.534334 148.822358,117.291791 148.822358,116.898374 C148.822358,116.373181 149.092484,116.111539 149.996737,116.111539 C150.063789,116.111539 150.161495,116.119178 150.161495,116.119178 L150.161495,116.119178 Z" id="Fill-126" fill="#000000" sketch:type="MSShapeGroup"></path>
                <path d="M154.667432,113.873263 C154.560147,113.823608 154.477768,113.80833 154.347495,113.80833 C153.943263,113.80833 153.615663,114.020317 153.286147,114.471028 C153.286147,114.241853 153.228674,114.005039 153.130968,113.815969 L152.299516,114.029866 C152.389558,114.281958 152.447032,114.619992 152.447032,115.143275 L152.447032,118.069076 L153.351284,118.069076 L153.351284,115.265501 C153.433663,114.929378 153.755516,114.652458 154.132926,114.652458 C154.232547,114.652458 154.297684,114.675376 154.387726,114.709752 L154.667432,113.873263" id="Fill-127" fill="#000000" sketch:type="MSShapeGroup"></path>
                <path d="M158.688674,117.66802 C158.368737,117.446484 158.318926,117.266963 158.326589,116.709304 L158.343832,115.521413 C158.351495,114.90646 158.351495,114.684925 158.276779,114.505404 C158.096695,114.052783 157.659895,113.817879 157.012358,113.817879 C156.387811,113.817879 155.868632,113.98785 155.244084,114.381268 L155.6464,115.030597 C155.6464,115.030597 156.288189,114.555059 156.887832,114.555059 C157.382105,114.555059 157.464484,114.809061 157.464484,115.282689 L157.464484,115.506135 L157.184779,115.506135 C155.853305,115.506135 155.129137,115.987403 155.129137,116.948028 C155.129137,117.66802 155.556358,118.193213 156.510421,118.193213 C156.954884,118.193213 157.315053,118.061437 157.652232,117.685208 C157.751853,117.946849 157.964505,118.143558 158.219305,118.240957 L158.688674,117.66802 L158.688674,117.66802 Z M157.447242,116.119178 L157.43,117.102721 C157.249916,117.362453 156.970211,117.534334 156.682842,117.534334 C156.320758,117.534334 156.108105,117.291791 156.108105,116.898374 C156.108105,116.373181 156.378232,116.111539 157.282484,116.111539 C157.347621,116.111539 157.447242,116.119178 157.447242,116.119178 L157.447242,116.119178 Z" id="Fill-128" fill="#000000" sketch:type="MSShapeGroup"></path>
            </g>
        </g>
    </g>
</svg>